<svg width="24" height="24" viewBox="0 0 24 24" fill="none" xmlns="http://www.w3.org/2000/svg">
<path d="M12 15.5C11.6022 15.5 11.2206 15.658 10.9393 15.9393C10.658 16.2206 10.5 16.6022 10.5 17C10.5 17.3978 10.658 17.7794 10.9393 18.0607C11.2206 18.342 11.6022 18.5 12 18.5C12.3978 18.5 12.7794 18.342 13.0607 18.0607C13.342 17.7794 13.5 17.3978 13.5 17C13.5 16.6022 13.342 16.2206 13.0607 15.9393C12.7794 15.658 12.3978 15.5 12 15.5ZM12 10.5C11.6022 10.5 11.2206 10.658 10.9393 10.9393C10.658 11.2206 10.5 11.6022 10.5 12C10.5 12.3978 10.658 12.7794 10.9393 13.0607C11.2206 13.342 11.6022 13.5 12 13.5C12.3978 13.5 12.7794 13.342 13.0607 13.0607C13.342 12.7794 13.5 12.3978 13.5 12C13.5 11.6022 13.342 11.2206 13.0607 10.9393C12.7794 10.658 12.3978 10.5 12 10.5ZM13.5 7C13.5 6.80302 13.4612 6.60796 13.3858 6.42597C13.3104 6.24399 13.1999 6.07863 13.0607 5.93934C12.9214 5.80005 12.756 5.68956 12.574 5.61418C12.392 5.5388 12.197 5.5 12 5.5C11.803 5.5 11.608 5.5388 11.426 5.61418C11.244 5.68956 11.0786 5.80005 10.9393 5.93934C10.8001 6.07863 10.6896 6.24399 10.6142 6.42597C10.5388 6.60796 10.5 6.80302 10.5 7C10.5 7.19698 10.5388 7.39204 10.6142 7.57403C10.6896 7.75601 10.8001 7.92137 10.9393 8.06066C11.0786 8.19995 11.244 8.31044 11.426 8.38582C11.608 8.4612 11.803 8.5 12 8.5C12.197 8.5 12.392 8.4612 12.574 8.38582C12.756 8.31044 12.9214 8.19995 13.0607 8.06066C13.1999 7.92137 13.3104 7.75601 13.3858 7.57403C13.4612 7.39204 13.5 7.19698 13.5 7Z" fill="black" fill-opacity="0.45"/>
</svg>
