<svg width="24" height="25" viewBox="0 0 24 25" fill="none" xmlns="http://www.w3.org/2000/svg">
<path d="M11.9999 22.2668C14.546 22.2668 16.9878 21.2553 18.7881 19.455C20.5885 17.6546 21.5999 15.2129 21.5999 12.6668C21.5999 10.1207 20.5885 7.6789 18.7881 5.87855C16.9878 4.0782 14.546 3.06677 11.9999 3.06677C9.45382 3.06677 7.01203 4.0782 5.21168 5.87855C3.41133 7.6789 2.3999 10.1207 2.3999 12.6668C2.3999 15.2129 3.41133 17.6546 5.21168 19.455C7.01203 21.2553 9.45382 22.2668 11.9999 22.2668ZM8.9624 9.62927C9.3149 9.27677 9.8849 9.27677 10.2337 9.62927L11.9962 11.3918L13.7587 9.62927C14.1112 9.27677 14.6812 9.27677 15.0299 9.62927C15.3787 9.98177 15.3824 10.5518 15.0299 10.9005L13.2674 12.663L15.0299 14.4255C15.3824 14.778 15.3824 15.348 15.0299 15.6968C14.6774 16.0455 14.1074 16.0493 13.7587 15.6968L11.9962 13.9343L10.2337 15.6968C9.88115 16.0493 9.31115 16.0493 8.9624 15.6968C8.61365 15.3443 8.6099 14.7743 8.9624 14.4255L10.7249 12.663L8.9624 10.9005C8.6099 10.548 8.6099 9.97802 8.9624 9.62927Z" fill="#E53E3E"/>
</svg>
