<svg width="24" height="24" viewBox="0 0 24 24" fill="none" xmlns="http://www.w3.org/2000/svg">
<path d="M11.9999 21.6C14.546 21.6 16.9878 20.5885 18.7881 18.7882C20.5885 16.9878 21.5999 14.546 21.5999 12C21.5999 9.45389 20.5885 7.01209 18.7881 5.21174C16.9878 3.41139 14.546 2.39996 11.9999 2.39996C9.45382 2.39996 7.01203 3.41139 5.21168 5.21174C3.41133 7.01209 2.3999 9.45389 2.3999 12C2.3999 14.546 3.41133 16.9878 5.21168 18.7882C7.01203 20.5885 9.45382 21.6 11.9999 21.6ZM10.4999 15H11.3999V12.6H10.4999C10.0012 12.6 9.5999 12.1987 9.5999 11.7C9.5999 11.2012 10.0012 10.8 10.4999 10.8H12.2999C12.7987 10.8 13.1999 11.2012 13.1999 11.7V15H13.4999C13.9987 15 14.3999 15.4012 14.3999 15.9C14.3999 16.3987 13.9987 16.8 13.4999 16.8H10.4999C10.0012 16.8 9.5999 16.3987 9.5999 15.9C9.5999 15.4012 10.0012 15 10.4999 15ZM11.9999 7.19996C12.3182 7.19996 12.6234 7.32639 12.8484 7.55144C13.0735 7.77648 13.1999 8.0817 13.1999 8.39996C13.1999 8.71822 13.0735 9.02345 12.8484 9.24849C12.6234 9.47354 12.3182 9.59996 11.9999 9.59996C11.6816 9.59996 11.3764 9.47354 11.1514 9.24849C10.9263 9.02345 10.7999 8.71822 10.7999 8.39996C10.7999 8.0817 10.9263 7.77648 11.1514 7.55144C11.3764 7.32639 11.6816 7.19996 11.9999 7.19996Z" fill="#3E4BE0"/>
</svg>
