<svg width="24" height="24" viewBox="0 0 24 24" fill="none" xmlns="http://www.w3.org/2000/svg">
<path d="M6.03145 13.9688C5.7377 14.2625 5.7377 14.7375 6.03145 15.0281L8.28145 17.2781C8.42207 17.4188 8.6127 17.4969 8.8127 17.4969H12.1908C12.3908 17.4969 12.5814 17.4188 12.7221 17.2781L14.7533 15.2469L9.7502 10.25L6.03145 13.9688ZM11.9096 5.96877C12.7877 5.09065 14.2127 5.09065 15.0908 5.96877L19.0314 9.9094C19.9096 10.7875 19.9096 12.2125 19.0314 13.0906L14.6221 17.5H19.2502C19.6658 17.5 20.0002 17.8344 20.0002 18.25C20.0002 18.6656 19.6658 19 19.2502 19H12.2502C12.2314 19 12.2096 19 12.1908 19H8.8127C8.21582 19 7.64395 18.7625 7.22207 18.3406L4.97207 16.0906C4.09395 15.2125 4.09395 13.7875 4.97207 12.9094L11.9096 5.96877Z" fill="black" fill-opacity="0.88"/>
</svg>
