<svg width="24" height="24" viewBox="0 0 24 24" fill="none" xmlns="http://www.w3.org/2000/svg">
<path d="M6.5998 19.2004V4.80039C6.5998 4.47039 6.8698 4.20039 7.1998 4.20039H13.1998V7.20039C13.1998 7.86414 13.7361 8.40039 14.3998 8.40039H17.3998V19.2004C17.3998 19.5304 17.1298 19.8004 16.7998 19.8004H7.1998C6.8698 19.8004 6.5998 19.5304 6.5998 19.2004ZM7.1998 2.40039C5.87605 2.40039 4.7998 3.47664 4.7998 4.80039V19.2004C4.7998 20.5241 5.87605 21.6004 7.1998 21.6004H16.7998C18.1236 21.6004 19.1998 20.5241 19.1998 19.2004V8.19414C19.1998 7.55664 18.9486 6.94539 18.4986 6.49539L15.1011 3.10164C14.6511 2.65164 14.0436 2.40039 13.4061 2.40039H7.1998ZM12.8998 11.1004C12.8998 10.6016 12.4986 10.2004 11.9998 10.2004C11.5011 10.2004 11.0998 10.6016 11.0998 11.1004V14.9291L9.9373 13.7666C9.5848 13.4141 9.0148 13.4141 8.66605 13.7666C8.3173 14.1191 8.31355 14.6891 8.66605 15.0379L11.3661 17.7379C11.7186 18.0904 12.2886 18.0904 12.6373 17.7379L15.3373 15.0379C15.6898 14.6854 15.6898 14.1154 15.3373 13.7666C14.9848 13.4179 14.4148 13.4141 14.0661 13.7666L12.9036 14.9291L12.8998 11.1004Z" fill="black" fill-opacity="0.88"/>
</svg>
