<svg width="24" height="24" viewBox="0 0 24 24" fill="none" xmlns="http://www.w3.org/2000/svg">
<path d="M6.5998 19.2V4.80002C6.5998 4.47002 6.8698 4.20002 7.1998 4.20002H13.1998V7.20002C13.1998 7.86377 13.7361 8.40002 14.3998 8.40002H17.3998V19.2C17.3998 19.53 17.1298 19.8 16.7998 19.8H7.1998C6.8698 19.8 6.5998 19.53 6.5998 19.2ZM7.1998 2.40002C5.87605 2.40002 4.7998 3.47627 4.7998 4.80002V19.2C4.7998 20.5238 5.87605 21.6 7.1998 21.6H16.7998C18.1236 21.6 19.1998 20.5238 19.1998 19.2V8.19377C19.1998 7.55627 18.9486 6.94502 18.4986 6.49502L15.1011 3.10127C14.6511 2.65127 14.0436 2.40002 13.4061 2.40002H7.1998ZM12.8998 11.1C12.8998 10.6013 12.4986 10.2 11.9998 10.2C11.5011 10.2 11.0998 10.6013 11.0998 11.1V14.9288L9.9373 13.7663C9.5848 13.4138 9.0148 13.4138 8.66605 13.7663C8.3173 14.1188 8.31355 14.6888 8.66605 15.0375L11.3661 17.7375C11.7186 18.09 12.2886 18.09 12.6373 17.7375L15.3373 15.0375C15.6898 14.685 15.6898 14.115 15.3373 13.7663C14.9848 13.4175 14.4148 13.4138 14.0661 13.7663L12.9036 14.9288L12.8998 11.1Z" fill="white"/>
</svg>
