<svg width="24" height="24" viewBox="0 0 24 24" fill="none" xmlns="http://www.w3.org/2000/svg">
<path d="M16.8 5.39998V18.6H21.6C21.93 18.6 22.2 18.33 22.2 18V5.99998C22.2 5.66998 21.93 5.39998 21.6 5.39998H16.8ZM15 5.39998H9V18.6H15V5.39998ZM7.2 18.6V5.39998H2.4C2.07 5.39998 1.8 5.66998 1.8 5.99998V18C1.8 18.33 2.07 18.6 2.4 18.6H7.2ZM0 5.99998C0 4.67623 1.07625 3.59998 2.4 3.59998H21.6C22.9238 3.59998 24 4.67623 24 5.99998V18C24 19.3237 22.9238 20.4 21.6 20.4H2.4C1.07625 20.4 0 19.3237 0 18V5.99998Z" fill="black" fill-opacity="0.88"/>
</svg>
