<svg width="16" height="16" viewBox="0 0 16 16" fill="none" xmlns="http://www.w3.org/2000/svg">
<path d="M8.0001 2.79998C9.37922 2.79998 10.7019 3.34783 11.6771 4.32302C12.6522 5.29821 13.2001 6.62085 13.2001 7.99998C13.2001 9.3791 12.6522 10.7017 11.6771 11.6769C10.7019 12.6521 9.37922 13.2 8.0001 13.2C6.62097 13.2 5.29833 12.6521 4.32314 11.6769C3.34795 10.7017 2.8001 9.3791 2.8001 7.99998C2.8001 6.62085 3.34795 5.29821 4.32314 4.32302C5.29833 3.34783 6.62097 2.79998 8.0001 2.79998ZM8.0001 14.4C9.69748 14.4 11.3253 13.7257 12.5256 12.5255C13.7258 11.3252 14.4001 9.69736 14.4001 7.99998C14.4001 6.30259 13.7258 4.67473 12.5256 3.47449C11.3253 2.27426 9.69748 1.59998 8.0001 1.59998C6.30271 1.59998 4.67485 2.27426 3.47461 3.47449C2.27438 4.67473 1.6001 6.30259 1.6001 7.99998C1.6001 9.69736 2.27438 11.3252 3.47461 12.5255C4.67485 13.7257 6.30271 14.4 8.0001 14.4ZM7.0001 9.99998C6.6676 9.99998 6.4001 10.2675 6.4001 10.6C6.4001 10.9325 6.6676 11.2 7.0001 11.2H9.0001C9.3326 11.2 9.6001 10.9325 9.6001 10.6C9.6001 10.2675 9.3326 9.99998 9.0001 9.99998H8.8001V7.79998C8.8001 7.46748 8.5326 7.19998 8.2001 7.19998H7.0001C6.6676 7.19998 6.4001 7.46748 6.4001 7.79998C6.4001 8.13248 6.6676 8.39998 7.0001 8.39998H7.6001V9.99998H7.0001ZM8.0001 6.39998C8.21227 6.39998 8.41575 6.31569 8.56578 6.16566C8.71581 6.01563 8.8001 5.81215 8.8001 5.59998C8.8001 5.3878 8.71581 5.18432 8.56578 5.03429C8.41575 4.88426 8.21227 4.79998 8.0001 4.79998C7.78793 4.79998 7.58444 4.88426 7.43441 5.03429C7.28438 5.18432 7.2001 5.3878 7.2001 5.59998C7.2001 5.81215 7.28438 6.01563 7.43441 6.16566C7.58444 6.31569 7.78793 6.39998 8.0001 6.39998Z" fill="black" fill-opacity="0.45"/>
</svg>
