<svg width="16" height="16" viewBox="0 0 16 16" fill="none" xmlns="http://www.w3.org/2000/svg">
<path d="M0 4C0 1.79086 1.79086 0 4 0H12C14.2091 0 16 1.79086 16 4V12C16 14.2091 14.2091 16 12 16H4C1.79086 16 0 14.2091 0 12V4Z" fill="#FEEBC8"/>
<path d="M8.36458 5.39593C8.5625 5.2744 8.69444 5.05391 8.69444 4.80565C8.69444 4.42197 8.38368 4.11121 8 4.11121C7.61632 4.11121 7.30556 4.42197 7.30556 4.80565C7.30556 5.05565 7.4375 5.2744 7.63542 5.39593L7.53472 5.59732L6.64063 7.38551C6.48264 7.70148 6.07292 7.79176 5.79688 7.57128L4.54688 6.57128L4.25 6.33343C4.33681 6.21711 4.38889 6.07301 4.38889 5.91676C4.38889 5.53308 4.07813 5.22232 3.69444 5.22232C3.31076 5.22232 3 5.53308 3 5.91676C3 6.30044 3.31076 6.61121 3.69444 6.61121C3.69792 6.61121 3.70313 6.61121 3.7066 6.61121L3.78299 7.02614L4.5 10.9758C4.59549 11.5036 5.05556 11.889 5.59375 11.889H10.4063C10.9427 11.889 11.4028 11.5053 11.5 10.9758L12.2188 7.02614L12.2951 6.61121C12.2986 6.61121 12.3038 6.61121 12.3073 6.61121C12.691 6.61121 13.0017 6.30044 13.0017 5.91676C13.0017 5.53308 12.691 5.22232 12.3073 5.22232C11.9236 5.22232 11.6128 5.53308 11.6128 5.91676C11.6128 6.07301 11.6649 6.21711 11.7517 6.33343L11.4549 6.57128L10.2049 7.57128C9.92882 7.79176 9.5191 7.70148 9.36111 7.38551L8.46528 5.59905L8.36458 5.39593ZM5.32118 10.8282L4.77431 7.81954L5.27604 8.22058C5.96701 8.77266 6.99132 8.54871 7.38542 7.75704L8 6.52961L8.61458 7.75704C9.01042 8.54871 10.0347 8.77266 10.724 8.22058L11.2257 7.81954L10.6788 10.8282C10.6545 10.9602 10.5399 11.0557 10.4063 11.0557H5.59375C5.46007 11.0557 5.34375 10.9602 5.32118 10.8282Z" fill="#DD6B20"/>
</svg>
