<svg width="16" height="16" viewBox="0 0 16 16" fill="none" xmlns="http://www.w3.org/2000/svg">
<path d="M6.6076 3.63748C6.8726 3.13748 7.3976 2.79998 8.0001 2.79998C8.6026 2.79998 9.1276 3.13748 9.3926 3.63748C9.5276 3.89248 9.8251 4.01498 10.1001 3.92998C10.6401 3.76498 11.2526 3.89498 11.6776 4.32248C12.1026 4.74998 12.2351 5.35998 12.0701 5.89998C11.9851 6.17498 12.1076 6.47248 12.3626 6.60498C12.8626 6.86998 13.2001 7.39498 13.2001 7.99748C13.2001 8.59998 12.8626 9.12498 12.3626 9.38998C12.1076 9.52498 11.9851 9.81998 12.0701 10.095C12.2351 10.635 12.1051 11.2475 11.6776 11.6725C11.2501 12.0975 10.6401 12.23 10.1001 12.065C9.8251 11.98 9.5276 12.1025 9.3951 12.3575C9.1301 12.8575 8.6051 13.195 8.0026 13.195C7.4001 13.195 6.8751 12.8575 6.6101 12.3575C6.4751 12.1025 6.1801 11.98 5.9051 12.065C5.3651 12.23 4.7526 12.1 4.3276 11.6725C3.9026 11.245 3.7651 10.64 3.9301 10.1C4.0151 9.82498 3.8926 9.52748 3.6376 9.39498C3.1376 9.12748 2.8001 8.60248 2.8001 7.99998C2.8001 7.39748 3.1376 6.87248 3.6376 6.60748C3.8926 6.47248 4.0151 6.17498 3.9301 5.89998C3.7651 5.35998 3.8951 4.74748 4.3226 4.32248C4.7501 3.89748 5.3601 3.76498 5.9001 3.92998C6.1751 4.01498 6.4726 3.89248 6.6051 3.63748H6.6076ZM8.0001 1.59998C7.1026 1.59998 6.3051 2.02498 5.7976 2.68498C4.9726 2.57748 4.1076 2.83998 3.4726 3.47498C2.8376 4.10998 2.5751 4.97498 2.6826 5.79998C2.0251 6.30498 1.6001 7.10248 1.6001 7.99998C1.6001 8.89748 2.0251 9.69498 2.6851 10.2025C2.5776 11.0275 2.8401 11.8925 3.4751 12.5275C4.1101 13.1625 4.9751 13.425 5.8001 13.3175C6.3051 13.975 7.1026 14.4 8.0001 14.4C8.8976 14.4 9.6951 13.975 10.2026 13.315C11.0276 13.4225 11.8926 13.16 12.5276 12.525C13.1626 11.89 13.4251 11.025 13.3176 10.2C13.9751 9.69498 14.4001 8.89748 14.4001 7.99998C14.4001 7.10248 13.9751 6.30498 13.3151 5.79748C13.4226 4.97248 13.1601 4.10748 12.5251 3.47248C11.8901 2.83748 11.0251 2.57498 10.2001 2.68248C9.6951 2.02498 8.8976 1.59998 8.0001 1.59998ZM10.8251 6.82498C11.0601 6.58998 11.0601 6.20998 10.8251 5.97748C10.5901 5.74498 10.2101 5.74248 9.9776 5.97748L7.2026 8.75248L6.0276 7.57748C5.7926 7.34248 5.4126 7.34248 5.1801 7.57748C4.9476 7.81248 4.9451 8.19248 5.1801 8.42498L6.7801 10.025C7.0151 10.26 7.3951 10.26 7.6276 10.025L10.8251 6.82498Z" fill="#48BB78"/>
</svg>
