<svg width="16" height="16" viewBox="0 0 16 16" fill="none" xmlns="http://www.w3.org/2000/svg">
<path d="M3.33325 4.33329C3.33325 4.06808 3.43861 3.81372 3.62615 3.62619C3.81368 3.43865 4.06804 3.33329 4.33325 3.33329C4.59847 3.33329 4.85282 3.43865 5.04036 3.62619C5.2279 3.81372 5.33325 4.06808 5.33325 4.33329C5.33325 4.59851 5.2279 4.85286 5.04036 5.0404C4.85282 5.22794 4.59847 5.33329 4.33325 5.33329C4.06804 5.33329 3.81368 5.22794 3.62615 5.0404C3.43861 4.85286 3.33325 4.59851 3.33325 4.33329ZM5.99992 4.33329C5.99992 3.89127 5.82432 3.46734 5.51176 3.15478C5.1992 2.84222 4.77528 2.66663 4.33325 2.66663C3.89122 2.66663 3.4673 2.84222 3.15474 3.15478C2.84218 3.46734 2.66659 3.89127 2.66659 4.33329C2.66659 4.77532 2.84218 5.19924 3.15474 5.5118C3.4673 5.82436 3.89122 5.99996 4.33325 5.99996C4.77528 5.99996 5.1992 5.82436 5.51176 5.5118C5.82432 5.19924 5.99992 4.77532 5.99992 4.33329ZM7.99992 5.99996C8.35354 5.99996 8.69268 6.14043 8.94273 6.39048C9.19278 6.64053 9.33325 6.97967 9.33325 7.33329C9.33325 7.68691 9.19278 8.02605 8.94273 8.2761C8.69268 8.52615 8.35354 8.66663 7.99992 8.66663C7.6463 8.66663 7.30716 8.52615 7.05711 8.2761C6.80706 8.02605 6.66659 7.68691 6.66659 7.33329C6.66659 6.97967 6.80706 6.64053 7.05711 6.39048C7.30716 6.14043 7.6463 5.99996 7.99992 5.99996ZM7.99992 9.33329C8.26256 9.33329 8.52263 9.28156 8.76529 9.18105C9.00794 9.08054 9.22842 8.93322 9.41413 8.74751C9.59985 8.56179 9.74717 8.34131 9.84768 8.09866C9.94819 7.85601 9.99992 7.59594 9.99992 7.33329C9.99992 7.07065 9.94819 6.81058 9.84768 6.56793C9.74717 6.32527 9.59985 6.1048 9.41413 5.91908C9.22842 5.73336 9.00794 5.58604 8.76529 5.48553C8.52263 5.38502 8.26256 5.33329 7.99992 5.33329C7.73728 5.33329 7.4772 5.38502 7.23455 5.48553C6.9919 5.58604 6.77142 5.73336 6.58571 5.91908C6.39999 6.1048 6.25267 6.32527 6.15216 6.56793C6.05165 6.81058 5.99992 7.07065 5.99992 7.33329C5.99992 7.59594 6.05165 7.85601 6.15216 8.09866C6.25267 8.34131 6.39999 8.56179 6.58571 8.74751C6.77142 8.93322 6.9919 9.08054 7.23455 9.18105C7.4772 9.28156 7.73728 9.33329 7.99992 9.33329ZM6.777 10.6666H9.22075C10.3499 10.6666 11.2708 11.552 11.3291 12.6666H4.66867C4.727 11.552 5.64784 10.6666 6.777 10.6666ZM6.777 9.99996C5.24367 9.99996 3.99992 11.2437 3.99992 12.777C3.99992 13.0833 4.24784 13.3333 4.55617 13.3333H11.4458C11.752 13.3333 12.002 13.0854 12.002 12.777C11.9999 11.2437 10.7562 9.99996 9.22284 9.99996H6.777ZM11.9999 3.33329C12.2651 3.33329 12.5195 3.43865 12.707 3.62619C12.8946 3.81372 12.9999 4.06808 12.9999 4.33329C12.9999 4.59851 12.8946 4.85286 12.707 5.0404C12.5195 5.22794 12.2651 5.33329 11.9999 5.33329C11.7347 5.33329 11.4803 5.22794 11.2928 5.0404C11.1053 4.85286 10.9999 4.59851 10.9999 4.33329C10.9999 4.06808 11.1053 3.81372 11.2928 3.62619C11.4803 3.43865 11.7347 3.33329 11.9999 3.33329ZM11.9999 5.99996C12.4419 5.99996 12.8659 5.82436 13.1784 5.5118C13.491 5.19924 13.6666 4.77532 13.6666 4.33329C13.6666 3.89127 13.491 3.46734 13.1784 3.15478C12.8659 2.84222 12.4419 2.66663 11.9999 2.66663C11.5579 2.66663 11.134 2.84222 10.8214 3.15478C10.5088 3.46734 10.3333 3.89127 10.3333 4.33329C10.3333 4.77532 10.5088 5.19924 10.8214 5.5118C11.134 5.82436 11.5579 5.99996 11.9999 5.99996ZM12.3333 7.33329C13.2541 7.33329 13.9999 8.07913 13.9999 8.99996C13.9999 9.18329 14.1499 9.33329 14.3333 9.33329C14.5166 9.33329 14.6666 9.18329 14.6666 8.99996C14.6666 7.71038 13.6228 6.66663 12.3333 6.66663H10.5833C10.6374 6.87913 10.6666 7.10413 10.6666 7.33329H12.3333ZM5.33325 7.33329C5.33325 7.10413 5.36242 6.87913 5.41659 6.66663H3.66659C2.377 6.66663 1.33325 7.71038 1.33325 8.99996C1.33325 9.18329 1.48325 9.33329 1.66659 9.33329C1.84992 9.33329 1.99992 9.18329 1.99992 8.99996C1.99992 8.07913 2.74575 7.33329 3.66659 7.33329H5.33325Z" fill="black" fill-opacity="0.45"/>
<path d="M9.2229 9.85022C10.8391 9.85025 12.1494 11.161 12.1516 12.777L12.1379 12.9196C12.072 13.2422 11.7858 13.483 11.4456 13.483H4.55591C4.16449 13.4829 3.84985 13.1656 3.84985 12.777C3.84989 11.161 5.16064 9.85043 6.77661 9.85022H9.2229ZM6.77661 10.817C5.78205 10.8172 4.96348 11.5568 4.83521 12.5162H11.1624C11.0341 11.5567 10.2156 10.8171 9.22095 10.817H6.77661ZM5.60962 6.51624L5.56177 6.70374C5.51067 6.90424 5.48364 7.11712 5.48364 7.33362V7.48303H3.66626C2.82853 7.48321 2.14983 8.1619 2.14966 8.99963C2.14966 9.26581 1.93244 9.48303 1.66626 9.48303C1.40023 9.48286 1.18286 9.2657 1.18286 8.99963C1.18304 7.62747 2.29409 6.51641 3.66626 6.51624H5.60962ZM8.00024 5.18323C8.28246 5.18327 8.56177 5.23929 8.82251 5.34729C9.08329 5.45531 9.32016 5.61354 9.51978 5.81311C9.71942 6.01275 9.87852 6.24953 9.98657 6.51038C10.0946 6.77123 10.1497 7.05128 10.1497 7.33362C10.1496 7.61575 10.0945 7.89521 9.98657 8.15588C9.87852 8.41673 9.71942 8.6535 9.51978 8.85315C9.32013 9.0528 9.08336 9.2119 8.82251 9.31995C8.56183 9.42788 8.28238 9.48299 8.00024 9.48303C7.7179 9.48303 7.43785 9.42799 7.177 9.31995C6.91616 9.2119 6.67938 9.05279 6.47974 8.85315C6.28017 8.65354 6.12193 8.41666 6.01392 8.15588C5.90592 7.89514 5.8499 7.61584 5.84985 7.33362C5.84985 7.05128 5.90587 6.77123 6.01392 6.51038C6.12196 6.24962 6.28015 6.01269 6.47974 5.81311C6.67932 5.61353 6.91625 5.45534 7.177 5.34729C7.43785 5.23924 7.7179 5.18323 8.00024 5.18323ZM12.3333 6.51624C13.7056 6.51624 14.8165 7.62736 14.8167 8.99963C14.8167 9.26581 14.5994 9.48303 14.3333 9.48303C14.0671 9.48303 13.8499 9.26581 13.8499 8.99963C13.8497 8.16179 13.1711 7.48303 12.3333 7.48303H10.5168V7.33362C10.5168 7.1171 10.4889 6.90426 10.4377 6.70374L10.3899 6.51624H12.3333ZM8.00024 6.15002C7.6864 6.15002 7.38525 6.27479 7.16333 6.4967C6.94141 6.71862 6.81665 7.01978 6.81665 7.33362C6.81674 7.64726 6.94159 7.94773 7.16333 8.16956C7.38525 8.39147 7.6864 8.51624 8.00024 8.51624C8.31397 8.51615 8.61434 8.3914 8.83618 8.16956C9.05802 7.94771 9.18278 7.64734 9.18286 7.33362C9.18286 7.01978 9.0581 6.71862 8.83618 6.4967C8.61436 6.27496 8.31389 6.15011 8.00024 6.15002ZM4.33325 2.51624C4.81491 2.51624 5.27677 2.70797 5.61743 3.04846C5.95812 3.38915 6.14966 3.85181 6.14966 4.33362C6.14957 4.81531 5.95805 5.27718 5.61743 5.6178C5.27676 5.95839 4.81499 6.15002 4.33325 6.15002C3.85152 6.15002 3.38975 5.95839 3.04907 5.6178C2.70846 5.27718 2.51693 4.81531 2.51685 4.33362C2.51685 3.85181 2.70838 3.38915 3.04907 3.04846C3.38973 2.70797 3.8516 2.51624 4.33325 2.51624ZM12.0002 2.51624C12.4819 2.51632 12.9438 2.70795 13.2844 3.04846C13.6251 3.38915 13.8167 3.85181 13.8167 4.33362C13.8166 4.81531 13.625 5.27718 13.2844 5.6178C12.9438 5.95841 12.4819 6.14994 12.0002 6.15002C11.5184 6.15002 11.0558 5.95849 10.7151 5.6178C10.3746 5.2772 10.1829 4.81523 10.1829 4.33362C10.1829 3.85181 10.3744 3.38915 10.7151 3.04846C11.0558 2.70777 11.5184 2.51624 12.0002 2.51624ZM4.33325 3.48303C4.10797 3.48303 3.89204 3.57285 3.73267 3.73206C3.57326 3.89146 3.48364 4.10818 3.48364 4.33362C3.48373 4.55893 3.57334 4.77487 3.73267 4.9342C3.89206 5.09351 4.10789 5.18323 4.33325 5.18323C4.55861 5.18323 4.77445 5.09351 4.93384 4.9342C5.09317 4.77488 5.18278 4.55893 5.18286 4.33362C5.18286 4.10818 5.09324 3.89146 4.93384 3.73206C4.77446 3.57285 4.55853 3.48303 4.33325 3.48303ZM12.0002 3.48303C11.7748 3.48303 11.5581 3.57265 11.3987 3.73206C11.2393 3.89146 11.1497 4.10818 11.1497 4.33362C11.1497 4.55886 11.2395 4.77489 11.3987 4.9342C11.5581 5.09361 11.7748 5.18323 12.0002 5.18323C12.2256 5.18314 12.4415 5.09353 12.6008 4.9342C12.7602 4.77487 12.8498 4.55893 12.8499 4.33362C12.8499 4.10818 12.7602 3.89146 12.6008 3.73206C12.4415 3.57283 12.2255 3.48312 12.0002 3.48303Z" stroke="black" stroke-opacity="0.45" stroke-width="0.3"/>
</svg>
