<svg width="82" height="22" viewBox="0 0 82 22" fill="none" xmlns="http://www.w3.org/2000/svg">
<mask id="path-1-inside-1_4732_188010" fill="white">
<path d="M0 4C0 1.79086 1.79086 0 4 0H78C80.2091 0 82 1.79086 82 4V18C82 20.2091 80.2091 22 78 22H4C1.79086 22 0 20.2091 0 18V4Z"/>
</mask>
<path d="M0 4C0 1.79086 1.79086 0 4 0H78C80.2091 0 82 1.79086 82 4V18C82 20.2091 80.2091 22 78 22H4C1.79086 22 0 20.2091 0 18V4Z" fill="#FFF5F5"/>
<path d="M4 0V1H78V0V-1H4V0ZM82 4H81V18H82H83V4H82ZM78 22V21H4V22V23H78V22ZM0 18H1V4H0H-1V18H0ZM4 22V21C2.34315 21 1 19.6569 1 18H0H-1C-1 20.7614 1.23858 23 4 23V22ZM82 18H81C81 19.6569 79.6569 21 78 21V22V23C80.7614 23 83 20.7614 83 18H82ZM78 0V1C79.6569 1 81 2.34315 81 4H82H83C83 1.23858 80.7614 -1 78 -1V0ZM4 0V-1C1.23858 -1 -1 1.23858 -1 4H0H1C1 2.34315 2.34315 1 4 1V0Z" fill="#FEB2B2" mask="url(#path-1-inside-1_4732_188010)"/>
<path d="M11.0303 6.25C11.2772 6.25 11.4758 6.44858 11.4758 6.69542V7.43778H14.1483V6.69542C14.1483 6.44858 14.3468 6.25 14.5937 6.25C14.8405 6.25 15.0391 6.44858 15.0391 6.69542V7.43778H15.7815C16.4366 7.43778 16.9692 7.97042 16.9692 8.62556V8.9225V9.81333H16.6723H16.0784H15.1876H9.54562V14.5644C9.54562 14.7278 9.67924 14.8614 9.84256 14.8614H13.9348C14.1631 15.2103 14.4545 15.5128 14.7941 15.7522H9.84256C9.18743 15.7522 8.65479 15.2196 8.65479 14.5644V9.81333V8.9225V8.62556C8.65479 7.97042 9.18743 7.43778 9.84256 7.43778H10.5849V6.69542C10.5849 6.44858 10.7835 6.25 11.0303 6.25ZM13.9998 13.0797C13.9998 12.3709 14.2814 11.6912 14.7825 11.19C15.2837 10.6888 15.9635 10.4072 16.6723 10.4072C17.3811 10.4072 18.0608 10.6888 18.562 11.19C19.0632 11.6912 19.3448 12.3709 19.3448 13.0797C19.3448 13.7885 19.0632 14.4683 18.562 14.9695C18.0608 15.4707 17.3811 15.7522 16.6723 15.7522C15.9635 15.7522 15.2837 15.4707 14.7825 14.9695C14.2814 14.4683 13.9998 13.7885 13.9998 13.0797ZM18.157 13.0797C18.157 12.9164 18.0234 12.7828 17.8601 12.7828H15.4845C15.3212 12.7828 15.1876 12.9164 15.1876 13.0797C15.1876 13.243 15.3212 13.3767 15.4845 13.3767H17.8601C18.0234 13.3767 18.157 13.243 18.157 13.0797Z" fill="#822727"/>
<path d="M28.068 15.144C27.412 15.144 26.82 14.984 26.292 14.664C25.772 14.336 25.364 13.868 25.068 13.26C24.772 12.652 24.624 11.92 24.624 11.064C24.624 10.432 24.708 9.864 24.876 9.36C25.052 8.856 25.3 8.428 25.62 8.076C25.94 7.716 26.308 7.444 26.724 7.26C27.148 7.076 27.612 6.984 28.116 6.984C28.588 6.984 29.008 7.08 29.376 7.272C29.752 7.464 30.052 7.692 30.276 7.956L29.736 8.568C29.528 8.344 29.288 8.172 29.016 8.052C28.752 7.924 28.456 7.86 28.128 7.86C27.64 7.86 27.208 7.992 26.832 8.256C26.464 8.512 26.176 8.88 25.968 9.36C25.76 9.832 25.656 10.392 25.656 11.04C25.656 11.704 25.756 12.276 25.956 12.756C26.156 13.236 26.444 13.608 26.82 13.872C27.196 14.128 27.636 14.256 28.14 14.256C28.508 14.256 28.836 14.188 29.124 14.052C29.42 13.908 29.688 13.7 29.928 13.428L30.456 14.016C30.144 14.376 29.796 14.656 29.412 14.856C29.028 15.048 28.58 15.144 28.068 15.144ZM33.1835 15.144C32.8635 15.144 32.5715 15.08 32.3075 14.952C32.0515 14.816 31.8475 14.628 31.6955 14.388C31.5435 14.14 31.4675 13.84 31.4675 13.488C31.4675 12.832 31.7555 12.336 32.3315 12C32.9075 11.664 33.8195 11.428 35.0675 11.292C35.0595 11.052 35.0195 10.82 34.9475 10.596C34.8835 10.372 34.7635 10.192 34.5875 10.056C34.4115 9.92 34.1675 9.852 33.8555 9.852C33.5195 9.852 33.2035 9.916 32.9075 10.044C32.6115 10.164 32.3475 10.3 32.1155 10.452L31.7315 9.78C31.9075 9.66 32.1155 9.544 32.3555 9.432C32.5955 9.312 32.8555 9.216 33.1355 9.144C33.4155 9.064 33.7115 9.024 34.0235 9.024C34.4955 9.024 34.8795 9.124 35.1755 9.324C35.4795 9.516 35.6995 9.792 35.8355 10.152C35.9795 10.512 36.0515 10.936 36.0515 11.424V15H35.2355L35.1515 14.304H35.1155C34.8355 14.536 34.5355 14.736 34.2155 14.904C33.8955 15.064 33.5515 15.144 33.1835 15.144ZM33.4595 14.328C33.7475 14.328 34.0155 14.264 34.2635 14.136C34.5195 14.008 34.7875 13.82 35.0675 13.572V12C34.4115 12.08 33.8915 12.184 33.5075 12.312C33.1315 12.432 32.8595 12.584 32.6915 12.768C32.5235 12.952 32.4395 13.172 32.4395 13.428C32.4395 13.748 32.5395 13.98 32.7395 14.124C32.9395 14.26 33.1795 14.328 33.4595 14.328ZM37.8863 15V9.168H38.7023L38.7863 10.008H38.8223C39.1023 9.728 39.3983 9.496 39.7103 9.312C40.0223 9.12 40.3783 9.024 40.7783 9.024C41.3943 9.024 41.8423 9.22 42.1223 9.612C42.4103 9.996 42.5543 10.56 42.5543 11.304V15H41.5703V11.436C41.5703 10.884 41.4823 10.488 41.3063 10.248C41.1383 10 40.8583 9.876 40.4663 9.876C40.1703 9.876 39.9023 9.952 39.6623 10.104C39.4303 10.256 39.1663 10.48 38.8703 10.776V15H37.8863ZM46.7648 15.144C46.2448 15.144 45.7768 15.024 45.3608 14.784C44.9448 14.544 44.6168 14.196 44.3768 13.74C44.1368 13.284 44.0168 12.736 44.0168 12.096C44.0168 11.44 44.1448 10.884 44.4008 10.428C44.6648 9.972 45.0088 9.624 45.4328 9.384C45.8648 9.144 46.3288 9.024 46.8248 9.024C47.2088 9.024 47.5368 9.088 47.8088 9.216C48.0888 9.344 48.3288 9.508 48.5288 9.708L48.0368 10.32C47.8928 10.176 47.7208 10.064 47.5208 9.984C47.3288 9.896 47.1088 9.852 46.8608 9.852C46.5168 9.852 46.2048 9.948 45.9248 10.14C45.6528 10.324 45.4368 10.584 45.2768 10.92C45.1168 11.256 45.0368 11.648 45.0368 12.096C45.0368 12.536 45.1128 12.924 45.2648 13.26C45.4168 13.596 45.6288 13.86 45.9008 14.052C46.1728 14.236 46.4888 14.328 46.8488 14.328C47.1208 14.328 47.3728 14.276 47.6048 14.172C47.8368 14.068 48.0368 13.936 48.2048 13.776L48.6368 14.376C48.3888 14.608 48.1088 14.796 47.7968 14.94C47.4848 15.076 47.1408 15.144 46.7648 15.144ZM52.0394 15.144C51.5194 15.144 51.0434 15.024 50.6114 14.784C50.1874 14.536 49.8514 14.188 49.6034 13.74C49.3554 13.284 49.2314 12.732 49.2314 12.084C49.2314 11.452 49.3594 10.908 49.6154 10.452C49.8714 9.996 50.1994 9.644 50.5994 9.396C50.9994 9.148 51.4234 9.024 51.8714 9.024C52.3674 9.024 52.7874 9.14 53.1314 9.372C53.4834 9.596 53.7474 9.912 53.9234 10.32C54.0994 10.728 54.1874 11.208 54.1874 11.76C54.1874 11.864 54.1834 11.964 54.1754 12.06C54.1754 12.156 54.1634 12.252 54.1394 12.348H49.9394V11.568H53.2994C53.2994 11.008 53.1754 10.58 52.9274 10.284C52.6874 9.98 52.3394 9.828 51.8834 9.828C51.6194 9.828 51.3594 9.904 51.1034 10.056C50.8474 10.2 50.6354 10.436 50.4674 10.764C50.3074 11.092 50.2274 11.528 50.2274 12.072C50.2274 12.568 50.3114 12.984 50.4794 13.32C50.6554 13.656 50.8914 13.912 51.1874 14.088C51.4834 14.256 51.8074 14.34 52.1594 14.34C52.4394 14.34 52.6994 14.3 52.9394 14.22C53.1874 14.14 53.4114 14.032 53.6114 13.896L53.9714 14.544C53.7154 14.72 53.4274 14.864 53.1074 14.976C52.7954 15.088 52.4394 15.144 52.0394 15.144ZM56.6725 15.108C56.4245 15.108 56.2245 15.06 56.0725 14.964C55.9205 14.86 55.8085 14.712 55.7365 14.52C55.6645 14.32 55.6285 14.08 55.6285 13.8V6.456H56.6125V13.872C56.6125 14.032 56.6405 14.144 56.6965 14.208C56.7525 14.264 56.8205 14.292 56.9005 14.292C56.9325 14.292 56.9605 14.292 56.9845 14.292C57.0165 14.284 57.0565 14.276 57.1045 14.268L57.2485 15.012C57.1765 15.036 57.0925 15.056 56.9965 15.072C56.9085 15.096 56.8005 15.108 56.6725 15.108ZM59.7311 15.108C59.4831 15.108 59.2831 15.06 59.1311 14.964C58.9791 14.86 58.8671 14.712 58.7951 14.52C58.7231 14.32 58.6871 14.08 58.6871 13.8V6.456H59.6711V13.872C59.6711 14.032 59.6991 14.144 59.7551 14.208C59.8111 14.264 59.8791 14.292 59.9591 14.292C59.9911 14.292 60.0191 14.292 60.0431 14.292C60.0751 14.284 60.1151 14.276 60.1631 14.268L60.3071 15.012C60.2351 15.036 60.1511 15.056 60.0551 15.072C59.9671 15.096 59.8591 15.108 59.7311 15.108ZM64.1097 15.144C63.5897 15.144 63.1137 15.024 62.6817 14.784C62.2577 14.536 61.9217 14.188 61.6737 13.74C61.4257 13.284 61.3017 12.732 61.3017 12.084C61.3017 11.452 61.4297 10.908 61.6857 10.452C61.9417 9.996 62.2697 9.644 62.6697 9.396C63.0697 9.148 63.4937 9.024 63.9417 9.024C64.4377 9.024 64.8577 9.14 65.2017 9.372C65.5537 9.596 65.8177 9.912 65.9937 10.32C66.1697 10.728 66.2577 11.208 66.2577 11.76C66.2577 11.864 66.2537 11.964 66.2457 12.06C66.2457 12.156 66.2337 12.252 66.2097 12.348H62.0097V11.568H65.3697C65.3697 11.008 65.2457 10.58 64.9977 10.284C64.7577 9.98 64.4097 9.828 63.9537 9.828C63.6897 9.828 63.4297 9.904 63.1737 10.056C62.9177 10.2 62.7057 10.436 62.5377 10.764C62.3777 11.092 62.2977 11.528 62.2977 12.072C62.2977 12.568 62.3817 12.984 62.5497 13.32C62.7257 13.656 62.9617 13.912 63.2577 14.088C63.5537 14.256 63.8777 14.34 64.2297 14.34C64.5097 14.34 64.7697 14.3 65.0097 14.22C65.2577 14.14 65.4817 14.032 65.6817 13.896L66.0417 14.544C65.7857 14.72 65.4977 14.864 65.1777 14.976C64.8657 15.088 64.5097 15.144 64.1097 15.144ZM69.6908 15.144C68.9548 15.144 68.3668 14.88 67.9268 14.352C67.4948 13.816 67.2788 13.064 67.2788 12.096C67.2788 11.464 67.3948 10.92 67.6268 10.464C67.8668 10 68.1788 9.644 68.5628 9.396C68.9468 9.148 69.3628 9.024 69.8108 9.024C70.1548 9.024 70.4468 9.084 70.6868 9.204C70.9348 9.316 71.1868 9.48 71.4428 9.696L71.3948 8.7V6.456H72.3908V15H71.5748L71.4908 14.316H71.4548C71.2308 14.54 70.9668 14.736 70.6628 14.904C70.3588 15.064 70.0348 15.144 69.6908 15.144ZM69.9068 14.316C70.1788 14.316 70.4348 14.248 70.6748 14.112C70.9148 13.976 71.1548 13.776 71.3948 13.512V10.464C71.1548 10.24 70.9188 10.084 70.6868 9.996C70.4548 9.9 70.2188 9.852 69.9788 9.852C69.6668 9.852 69.3828 9.948 69.1268 10.14C68.8788 10.324 68.6788 10.584 68.5268 10.92C68.3748 11.248 68.2988 11.636 68.2988 12.084C68.2988 12.78 68.4388 13.328 68.7188 13.728C68.9988 14.12 69.3948 14.316 69.9068 14.316Z" fill="#822727"/>
</svg>
