<svg width="86" height="22" viewBox="0 0 86 22" fill="none" xmlns="http://www.w3.org/2000/svg">
<mask id="path-1-inside-1_4732_188007" fill="white">
<path d="M0 4C0 1.79086 1.79086 0 4 0H82C84.2091 0 86 1.79086 86 4V18C86 20.2091 84.2091 22 82 22H4C1.79086 22 0 20.2091 0 18V4Z"/>
</mask>
<path d="M0 4C0 1.79086 1.79086 0 4 0H82C84.2091 0 86 1.79086 86 4V18C86 20.2091 84.2091 22 82 22H4C1.79086 22 0 20.2091 0 18V4Z" fill="#F0FFF4"/>
<path d="M4 0V1H82V0V-1H4V0ZM86 4H85V18H86H87V4H86ZM82 22V21H4V22V23H82V22ZM0 18H1V4H0H-1V18H0ZM4 22V21C2.34315 21 1 19.6569 1 18H0H-1C-1 20.7614 1.23858 23 4 23V22ZM86 18H85C85 19.6569 83.6569 21 82 21V22V23C84.7614 23 87 20.7614 87 18H86ZM82 0V1C83.6569 1 85 2.34315 85 4H86H87C87 1.23858 84.7614 -1 82 -1V0ZM4 0V-1C1.23858 -1 -1 1.23858 -1 4H0H1C1 2.34315 2.34315 1 4 1V0Z" fill="#9AE6B4" mask="url(#path-1-inside-1_4732_188007)"/>
<path d="M14.0002 7.09995C15.0345 7.09995 16.0265 7.51084 16.7579 8.24223C17.4893 8.97363 17.9002 9.96561 17.9002 11C17.9002 12.0343 17.4893 13.0263 16.7579 13.7577C16.0265 14.4891 15.0345 14.9 14.0002 14.9C12.9659 14.9 11.9739 14.4891 11.2425 13.7577C10.5111 13.0263 10.1002 12.0343 10.1002 11C10.1002 9.96561 10.5111 8.97363 11.2425 8.24223C11.9739 7.51084 12.9659 7.09995 14.0002 7.09995ZM14.0002 15.8C15.2732 15.8 16.4941 15.2942 17.3943 14.3941C18.2945 13.4939 18.8002 12.273 18.8002 11C18.8002 9.72691 18.2945 8.50601 17.3943 7.60584C16.4941 6.70566 15.2732 6.19995 14.0002 6.19995C12.7272 6.19995 11.5063 6.70566 10.6061 7.60584C9.70591 8.50601 9.2002 9.72691 9.2002 11C9.2002 12.273 9.70591 13.4939 10.6061 14.3941C11.5063 15.2942 12.7272 15.8 14.0002 15.8ZM16.1189 10.1187C16.2952 9.94245 16.2952 9.65745 16.1189 9.48308C15.9427 9.3087 15.6577 9.30683 15.4833 9.48308L13.4021 11.5643L12.5208 10.6831C12.3446 10.5068 12.0596 10.5068 11.8852 10.6831C11.7108 10.8593 11.7089 11.1443 11.8852 11.3187L13.0852 12.5187C13.2614 12.695 13.5464 12.695 13.7208 12.5187L16.1189 10.1187Z" fill="#22543D"/>
<path d="M28.068 15.144C27.412 15.144 26.82 14.984 26.292 14.664C25.772 14.336 25.364 13.868 25.068 13.26C24.772 12.652 24.624 11.92 24.624 11.064C24.624 10.432 24.708 9.864 24.876 9.36C25.052 8.856 25.3 8.428 25.62 8.076C25.94 7.716 26.308 7.444 26.724 7.26C27.148 7.076 27.612 6.984 28.116 6.984C28.588 6.984 29.008 7.08 29.376 7.272C29.752 7.464 30.052 7.692 30.276 7.956L29.736 8.568C29.528 8.344 29.288 8.172 29.016 8.052C28.752 7.924 28.456 7.86 28.128 7.86C27.64 7.86 27.208 7.992 26.832 8.256C26.464 8.512 26.176 8.88 25.968 9.36C25.76 9.832 25.656 10.392 25.656 11.04C25.656 11.704 25.756 12.276 25.956 12.756C26.156 13.236 26.444 13.608 26.82 13.872C27.196 14.128 27.636 14.256 28.14 14.256C28.508 14.256 28.836 14.188 29.124 14.052C29.42 13.908 29.688 13.7 29.928 13.428L30.456 14.016C30.144 14.376 29.796 14.656 29.412 14.856C29.028 15.048 28.58 15.144 28.068 15.144ZM34.1075 15.144C33.6355 15.144 33.1915 15.024 32.7755 14.784C32.3675 14.544 32.0355 14.196 31.7795 13.74C31.5315 13.284 31.4075 12.736 31.4075 12.096C31.4075 11.44 31.5315 10.884 31.7795 10.428C32.0355 9.972 32.3675 9.624 32.7755 9.384C33.1915 9.144 33.6355 9.024 34.1075 9.024C34.5875 9.024 35.0315 9.144 35.4395 9.384C35.8475 9.624 36.1755 9.972 36.4235 10.428C36.6795 10.884 36.8075 11.44 36.8075 12.096C36.8075 12.736 36.6795 13.284 36.4235 13.74C36.1755 14.196 35.8475 14.544 35.4395 14.784C35.0315 15.024 34.5875 15.144 34.1075 15.144ZM34.1075 14.328C34.4435 14.328 34.7395 14.236 34.9955 14.052C35.2515 13.86 35.4475 13.596 35.5835 13.26C35.7195 12.924 35.7875 12.536 35.7875 12.096C35.7875 11.648 35.7195 11.256 35.5835 10.92C35.4475 10.576 35.2515 10.312 34.9955 10.128C34.7395 9.936 34.4435 9.84 34.1075 9.84C33.7715 9.84 33.4755 9.936 33.2195 10.128C32.9715 10.312 32.7755 10.576 32.6315 10.92C32.4955 11.256 32.4275 11.648 32.4275 12.096C32.4275 12.536 32.4955 12.924 32.6315 13.26C32.7755 13.596 32.9715 13.86 33.2195 14.052C33.4755 14.236 33.7715 14.328 34.1075 14.328ZM38.3434 15V9.168H39.1594L39.2434 10.008H39.2794C39.5594 9.728 39.8554 9.496 40.1674 9.312C40.4794 9.12 40.8354 9.024 41.2354 9.024C41.8514 9.024 42.2994 9.22 42.5794 9.612C42.8674 9.996 43.0114 10.56 43.0114 11.304V15H42.0274V11.436C42.0274 10.884 41.9394 10.488 41.7634 10.248C41.5954 10 41.3154 9.876 40.9234 9.876C40.6274 9.876 40.3594 9.952 40.1194 10.104C39.8874 10.256 39.6234 10.48 39.3274 10.776V15H38.3434ZM45.0739 15V8.244C45.0739 7.852 45.1339 7.512 45.2539 7.224C45.3739 6.928 45.5579 6.704 45.8059 6.552C46.0619 6.392 46.3859 6.312 46.7779 6.312C46.9539 6.312 47.1259 6.332 47.2939 6.372C47.4699 6.404 47.6219 6.448 47.7499 6.504L47.5339 7.224C47.3019 7.152 47.0819 7.116 46.8739 7.116C46.6019 7.116 46.3979 7.212 46.2619 7.404C46.1259 7.588 46.0579 7.868 46.0579 8.244V15H45.0739ZM44.2099 9.972V9.228L45.1219 9.168H47.2939V9.972H44.2099ZM48.4098 15V9.168H49.3938V15H48.4098ZM48.9018 7.968C48.7098 7.968 48.5498 7.908 48.4218 7.788C48.3018 7.668 48.2418 7.512 48.2418 7.32C48.2418 7.128 48.3018 6.972 48.4218 6.852C48.5498 6.732 48.7098 6.672 48.9018 6.672C49.0938 6.672 49.2498 6.732 49.3698 6.852C49.4978 6.972 49.5618 7.128 49.5618 7.32C49.5618 7.512 49.4978 7.668 49.3698 7.788C49.2498 7.908 49.0938 7.968 48.9018 7.968ZM51.3629 15V9.168H52.1789L52.2629 10.224H52.2989C52.4909 9.856 52.7309 9.564 53.0189 9.348C53.3069 9.132 53.6189 9.024 53.9549 9.024C54.0829 9.024 54.1949 9.032 54.2909 9.048C54.3869 9.064 54.4829 9.096 54.5789 9.144L54.3629 9.984C54.2749 9.96 54.1909 9.944 54.1109 9.936C54.0389 9.92 53.9429 9.912 53.8229 9.912C53.5749 9.912 53.3149 10.012 53.0429 10.212C52.7789 10.412 52.5469 10.76 52.3469 11.256V15H51.3629ZM55.5231 15V9.168H56.3391L56.4231 10.008H56.4591C56.7151 9.736 56.9911 9.504 57.2871 9.312C57.5911 9.12 57.9191 9.024 58.2711 9.024C58.7191 9.024 59.0671 9.124 59.3151 9.324C59.5711 9.524 59.7591 9.796 59.8791 10.14C60.1831 9.804 60.4911 9.536 60.8031 9.336C61.1151 9.128 61.4471 9.024 61.7991 9.024C62.4071 9.024 62.8551 9.22 63.1431 9.612C63.4311 9.996 63.5751 10.56 63.5751 11.304V15H62.5911V11.436C62.5911 10.884 62.5031 10.488 62.3271 10.248C62.1511 10 61.8791 9.876 61.5111 9.876C61.2791 9.876 61.0431 9.952 60.8031 10.104C60.5711 10.248 60.3191 10.472 60.0471 10.776V15H59.0631V11.436C59.0631 10.884 58.9751 10.488 58.7991 10.248C58.6231 10 58.3471 9.876 57.9711 9.876C57.5311 9.876 57.0431 10.176 56.5071 10.776V15H55.5231ZM67.8363 15.144C67.3163 15.144 66.8403 15.024 66.4083 14.784C65.9843 14.536 65.6483 14.188 65.4003 13.74C65.1523 13.284 65.0283 12.732 65.0283 12.084C65.0283 11.452 65.1563 10.908 65.4123 10.452C65.6683 9.996 65.9963 9.644 66.3963 9.396C66.7963 9.148 67.2203 9.024 67.6683 9.024C68.1643 9.024 68.5843 9.14 68.9283 9.372C69.2803 9.596 69.5443 9.912 69.7203 10.32C69.8963 10.728 69.9843 11.208 69.9843 11.76C69.9843 11.864 69.9803 11.964 69.9723 12.06C69.9723 12.156 69.9603 12.252 69.9363 12.348H65.7363V11.568H69.0963C69.0963 11.008 68.9723 10.58 68.7243 10.284C68.4843 9.98 68.1363 9.828 67.6803 9.828C67.4163 9.828 67.1563 9.904 66.9003 10.056C66.6443 10.2 66.4323 10.436 66.2643 10.764C66.1043 11.092 66.0243 11.528 66.0243 12.072C66.0243 12.568 66.1083 12.984 66.2763 13.32C66.4523 13.656 66.6883 13.912 66.9843 14.088C67.2803 14.256 67.6043 14.34 67.9563 14.34C68.2363 14.34 68.4963 14.3 68.7363 14.22C68.9843 14.14 69.2083 14.032 69.4083 13.896L69.7683 14.544C69.5123 14.72 69.2243 14.864 68.9043 14.976C68.5923 15.088 68.2363 15.144 67.8363 15.144ZM73.4174 15.144C72.6814 15.144 72.0934 14.88 71.6534 14.352C71.2214 13.816 71.0054 13.064 71.0054 12.096C71.0054 11.464 71.1214 10.92 71.3534 10.464C71.5934 10 71.9054 9.644 72.2894 9.396C72.6734 9.148 73.0894 9.024 73.5374 9.024C73.8814 9.024 74.1734 9.084 74.4134 9.204C74.6614 9.316 74.9134 9.48 75.1694 9.696L75.1214 8.7V6.456H76.1174V15H75.3014L75.2174 14.316H75.1814C74.9574 14.54 74.6934 14.736 74.3894 14.904C74.0854 15.064 73.7614 15.144 73.4174 15.144ZM73.6334 14.316C73.9054 14.316 74.1614 14.248 74.4014 14.112C74.6414 13.976 74.8814 13.776 75.1214 13.512V10.464C74.8814 10.24 74.6454 10.084 74.4134 9.996C74.1814 9.9 73.9454 9.852 73.7054 9.852C73.3934 9.852 73.1094 9.948 72.8534 10.14C72.6054 10.324 72.4054 10.584 72.2534 10.92C72.1014 11.248 72.0254 11.636 72.0254 12.084C72.0254 12.78 72.1654 13.328 72.4454 13.728C72.7254 14.12 73.1214 14.316 73.6334 14.316Z" fill="#22543D"/>
</svg>
