<svg width="98" height="22" viewBox="0 0 98 22" fill="none" xmlns="http://www.w3.org/2000/svg">
<mask id="path-1-inside-1_4732_188008" fill="white">
<path d="M0 4C0 1.79086 1.79086 0 4 0H94C96.2091 0 98 1.79086 98 4V18C98 20.2091 96.2091 22 94 22H4C1.79086 22 0 20.2091 0 18V4Z"/>
</mask>
<path d="M0 4C0 1.79086 1.79086 0 4 0H94C96.2091 0 98 1.79086 98 4V18C98 20.2091 96.2091 22 94 22H4C1.79086 22 0 20.2091 0 18V4Z" fill="#F1F6FF"/>
<path d="M4 0V1H94V0V-1H4V0ZM98 4H97V18H98H99V4H98ZM94 22V21H4V22V23H94V22ZM0 18H1V4H0H-1V18H0ZM4 22V21C2.34314 21 1 19.6569 1 18H0H-1C-1 20.7614 1.23857 23 4 23V22ZM98 18H97C97 19.6569 95.6569 21 94 21V22V23C96.7614 23 99 20.7614 99 18H98ZM94 0V1C95.6569 1 97 2.34315 97 4H98H99C99 1.23858 96.7614 -1 94 -1V0ZM4 0V-1C1.23858 -1 -1 1.23858 -1 4H0H1C1 2.34315 2.34315 1 4 1V0Z" fill="#ACC4FD" mask="url(#path-1-inside-1_4732_188008)"/>
<path d="M12.7373 7C13.1028 7 13.3992 7.29666 13.3994 7.66211V15H8.77441C8.56679 14.9998 8.39941 14.8327 8.39941 14.625C8.39941 14.4173 8.56679 14.2502 8.77441 14.25H9.39941V8.4502C9.39941 8.11123 9.62768 7.81376 9.9541 7.72461L12.5654 7.02344C12.6217 7.00781 12.6795 7 12.7373 7ZM16.3994 14.25H17.0244C17.2322 14.25 17.3994 14.4172 17.3994 14.625C17.3994 14.8328 17.2322 15 17.0244 15H16.0244C15.8168 14.9998 15.6494 14.8327 15.6494 14.625V13H16.3994V14.25ZM10.1494 8.4502V14.25H12.6494V7.77637L10.1494 8.4502ZM11.8994 10.5C12.1057 10.5 12.2744 10.725 12.2744 11C12.2744 11.275 12.1057 11.5 11.8994 11.5C11.6918 11.4997 11.5244 11.2748 11.5244 11C11.5244 10.7252 11.6933 10.5003 11.8994 10.5ZM15.5244 8C16.0072 8 16.3994 8.39219 16.3994 8.875V10H15.6494V8.875C15.6494 8.80625 15.5932 8.75 15.5244 8.75H13.8994V8H15.5244Z" fill="#333D73"/>
<path d="M17.9687 9.63219C17.7924 9.45594 17.5074 9.45594 17.333 9.63219C17.1587 9.80844 17.1568 10.0934 17.333 10.2678L18.0643 10.9991H14.8499C14.6005 10.9991 14.3999 11.1997 14.3999 11.4491C14.3999 11.6984 14.6005 11.8991 14.8499 11.8991H18.0643L17.333 12.6303C17.1568 12.8066 17.1568 13.0916 17.333 13.2659C17.5093 13.4403 17.7943 13.4422 17.9687 13.2659L19.4687 11.7659C19.6449 11.5897 19.6449 11.3047 19.4687 11.1303L17.9687 9.63031V9.63219Z" fill="#333D73"/>
<path d="M28.068 15.144C27.412 15.144 26.82 14.984 26.292 14.664C25.772 14.336 25.364 13.868 25.068 13.26C24.772 12.652 24.624 11.92 24.624 11.064C24.624 10.432 24.708 9.864 24.876 9.36C25.052 8.856 25.3 8.428 25.62 8.076C25.94 7.716 26.308 7.444 26.724 7.26C27.148 7.076 27.612 6.984 28.116 6.984C28.588 6.984 29.008 7.08 29.376 7.272C29.752 7.464 30.052 7.692 30.276 7.956L29.736 8.568C29.528 8.344 29.288 8.172 29.016 8.052C28.752 7.924 28.456 7.86 28.128 7.86C27.64 7.86 27.208 7.992 26.832 8.256C26.464 8.512 26.176 8.88 25.968 9.36C25.76 9.832 25.656 10.392 25.656 11.04C25.656 11.704 25.756 12.276 25.956 12.756C26.156 13.236 26.444 13.608 26.82 13.872C27.196 14.128 27.636 14.256 28.14 14.256C28.508 14.256 28.836 14.188 29.124 14.052C29.42 13.908 29.688 13.7 29.928 13.428L30.456 14.016C30.144 14.376 29.796 14.656 29.412 14.856C29.028 15.048 28.58 15.144 28.068 15.144ZM31.8395 15V6.456H32.8235V8.784L32.7875 9.984C33.0675 9.72 33.3595 9.496 33.6635 9.312C33.9755 9.12 34.3315 9.024 34.7315 9.024C35.3475 9.024 35.7955 9.22 36.0755 9.612C36.3635 9.996 36.5075 10.56 36.5075 11.304V15H35.5235V11.436C35.5235 10.884 35.4355 10.488 35.2595 10.248C35.0915 10 34.8115 9.876 34.4195 9.876C34.1235 9.876 33.8555 9.952 33.6155 10.104C33.3835 10.256 33.1195 10.48 32.8235 10.776V15H31.8395ZM40.7308 15.144C40.2108 15.144 39.7348 15.024 39.3028 14.784C38.8788 14.536 38.5428 14.188 38.2948 13.74C38.0468 13.284 37.9228 12.732 37.9228 12.084C37.9228 11.452 38.0508 10.908 38.3068 10.452C38.5628 9.996 38.8908 9.644 39.2908 9.396C39.6908 9.148 40.1148 9.024 40.5628 9.024C41.0588 9.024 41.4788 9.14 41.8228 9.372C42.1748 9.596 42.4388 9.912 42.6148 10.32C42.7908 10.728 42.8788 11.208 42.8788 11.76C42.8788 11.864 42.8748 11.964 42.8668 12.06C42.8668 12.156 42.8548 12.252 42.8308 12.348H38.6308V11.568H41.9908C41.9908 11.008 41.8668 10.58 41.6188 10.284C41.3788 9.98 41.0308 9.828 40.5748 9.828C40.3108 9.828 40.0508 9.904 39.7948 10.056C39.5388 10.2 39.3268 10.436 39.1588 10.764C38.9988 11.092 38.9188 11.528 38.9188 12.072C38.9188 12.568 39.0028 12.984 39.1708 13.32C39.3468 13.656 39.5828 13.912 39.8788 14.088C40.1748 14.256 40.4988 14.34 40.8508 14.34C41.1308 14.34 41.3908 14.3 41.6308 14.22C41.8788 14.14 42.1028 14.032 42.3028 13.896L42.6628 14.544C42.4068 14.72 42.1188 14.864 41.7988 14.976C41.4868 15.088 41.1308 15.144 40.7308 15.144ZM46.6359 15.144C46.1159 15.144 45.6479 15.024 45.2319 14.784C44.8159 14.544 44.4879 14.196 44.2479 13.74C44.0079 13.284 43.8879 12.736 43.8879 12.096C43.8879 11.44 44.0159 10.884 44.2719 10.428C44.5359 9.972 44.8799 9.624 45.3039 9.384C45.7359 9.144 46.1999 9.024 46.6959 9.024C47.0799 9.024 47.4079 9.088 47.6799 9.216C47.9599 9.344 48.1999 9.508 48.3999 9.708L47.9079 10.32C47.7639 10.176 47.5919 10.064 47.3919 9.984C47.1999 9.896 46.9799 9.852 46.7319 9.852C46.3879 9.852 46.0759 9.948 45.7959 10.14C45.5239 10.324 45.3079 10.584 45.1479 10.92C44.9879 11.256 44.9079 11.648 44.9079 12.096C44.9079 12.536 44.9839 12.924 45.1359 13.26C45.2879 13.596 45.4999 13.86 45.7719 14.052C46.0439 14.236 46.3599 14.328 46.7199 14.328C46.9919 14.328 47.2439 14.276 47.4759 14.172C47.7079 14.068 47.9079 13.936 48.0759 13.776L48.5079 14.376C48.2599 14.608 47.9799 14.796 47.6679 14.94C47.3559 15.076 47.0119 15.144 46.6359 15.144ZM49.7926 15V6.456H50.7766V12.228H50.8006L53.2726 9.168H54.3766L52.4326 11.52L54.6406 15H53.5606L51.8566 12.192L50.7766 13.464V15H49.7926ZM57.8871 15.144C57.3671 15.144 56.8911 15.024 56.4591 14.784C56.0351 14.536 55.6991 14.188 55.4511 13.74C55.2031 13.284 55.0791 12.732 55.0791 12.084C55.0791 11.452 55.2071 10.908 55.4631 10.452C55.7191 9.996 56.0471 9.644 56.4471 9.396C56.8471 9.148 57.2711 9.024 57.7191 9.024C58.2151 9.024 58.6351 9.14 58.9791 9.372C59.3311 9.596 59.5951 9.912 59.7711 10.32C59.9471 10.728 60.0351 11.208 60.0351 11.76C60.0351 11.864 60.0311 11.964 60.0231 12.06C60.0231 12.156 60.0111 12.252 59.9871 12.348H55.7871V11.568H59.1471C59.1471 11.008 59.0231 10.58 58.7751 10.284C58.5351 9.98 58.1871 9.828 57.7311 9.828C57.4671 9.828 57.2071 9.904 56.9511 10.056C56.6951 10.2 56.4831 10.436 56.3151 10.764C56.1551 11.092 56.0751 11.528 56.0751 12.072C56.0751 12.568 56.1591 12.984 56.3271 13.32C56.5031 13.656 56.7391 13.912 57.0351 14.088C57.3311 14.256 57.6551 14.34 58.0071 14.34C58.2871 14.34 58.5471 14.3 58.7871 14.22C59.0351 14.14 59.2591 14.032 59.4591 13.896L59.8191 14.544C59.5631 14.72 59.2751 14.864 58.9551 14.976C58.6431 15.088 58.2871 15.144 57.8871 15.144ZM63.4682 15.144C62.7322 15.144 62.1442 14.88 61.7042 14.352C61.2722 13.816 61.0562 13.064 61.0562 12.096C61.0562 11.464 61.1722 10.92 61.4042 10.464C61.6442 10 61.9562 9.644 62.3402 9.396C62.7242 9.148 63.1402 9.024 63.5882 9.024C63.9322 9.024 64.2242 9.084 64.4642 9.204C64.7122 9.316 64.9642 9.48 65.2202 9.696L65.1722 8.7V6.456H66.1682V15H65.3522L65.2682 14.316H65.2322C65.0082 14.54 64.7442 14.736 64.4402 14.904C64.1362 15.064 63.8122 15.144 63.4682 15.144ZM63.6842 14.316C63.9562 14.316 64.2122 14.248 64.4522 14.112C64.6922 13.976 64.9322 13.776 65.1722 13.512V10.464C64.9322 10.24 64.6962 10.084 64.4642 9.996C64.2322 9.9 63.9962 9.852 63.7562 9.852C63.4442 9.852 63.1602 9.948 62.9042 10.14C62.6562 10.324 62.4562 10.584 62.3042 10.92C62.1522 11.248 62.0762 11.636 62.0762 12.084C62.0762 12.78 62.2162 13.328 62.4962 13.728C62.7762 14.12 63.1722 14.316 63.6842 14.316ZM67.6404 12.372V11.616H70.4004V12.372H67.6404ZM74.859 15.144C74.203 15.144 73.619 14.976 73.107 14.64C72.603 14.304 72.207 13.828 71.919 13.212C71.639 12.596 71.499 11.868 71.499 11.028C71.499 10.188 71.639 9.468 71.919 8.868C72.207 8.26 72.603 7.796 73.107 7.476C73.619 7.148 74.203 6.984 74.859 6.984C75.523 6.984 76.107 7.148 76.611 7.476C77.115 7.796 77.511 8.26 77.799 8.868C78.087 9.468 78.231 10.188 78.231 11.028C78.231 11.868 78.087 12.596 77.799 13.212C77.511 13.828 77.115 14.304 76.611 14.64C76.107 14.976 75.523 15.144 74.859 15.144ZM74.859 14.256C75.331 14.256 75.739 14.124 76.083 13.86C76.435 13.596 76.707 13.224 76.899 12.744C77.091 12.256 77.187 11.684 77.187 11.028C77.187 10.38 77.091 9.82 76.899 9.348C76.707 8.876 76.435 8.512 76.083 8.256C75.739 7.992 75.331 7.86 74.859 7.86C74.395 7.86 73.987 7.992 73.635 8.256C73.283 8.512 73.011 8.876 72.819 9.348C72.627 9.82 72.531 10.38 72.531 11.028C72.531 11.684 72.627 12.256 72.819 12.744C73.011 13.224 73.283 13.596 73.635 13.86C73.987 14.124 74.395 14.256 74.859 14.256ZM81.5318 15.144C80.9158 15.144 80.4638 14.952 80.1758 14.568C79.8958 14.176 79.7558 13.608 79.7558 12.864V9.168H80.7398V12.732C80.7398 13.276 80.8238 13.672 80.9918 13.92C81.1678 14.16 81.4478 14.28 81.8318 14.28C82.1278 14.28 82.3918 14.204 82.6238 14.052C82.8638 13.892 83.1238 13.644 83.4038 13.308V9.168H84.3878V15H83.5718L83.4878 14.088H83.4518C83.1878 14.408 82.8998 14.664 82.5878 14.856C82.2838 15.048 81.9318 15.144 81.5318 15.144ZM88.1911 15.108C87.5751 15.108 87.1431 14.928 86.8951 14.568C86.6471 14.208 86.5231 13.74 86.5231 13.164V9.972H85.6591V9.228L86.5711 9.168L86.6911 7.296H87.5191V9.168H89.1031V9.972H87.5191V13.176C87.5191 13.528 87.5831 13.804 87.7111 14.004C87.8471 14.204 88.0831 14.304 88.4191 14.304C88.5231 14.304 88.6311 14.296 88.7431 14.28C88.8551 14.256 88.9671 14.216 89.0791 14.16L89.2951 14.856C89.1431 14.928 88.9711 14.988 88.7791 15.036C88.5871 15.084 88.3911 15.108 88.1911 15.108Z" fill="#333D73"/>
</svg>
