<svg width="78" height="22" viewBox="0 0 78 22" fill="none" xmlns="http://www.w3.org/2000/svg">
<mask id="path-1-inside-1_4732_188006" fill="white">
<path d="M0 4C0 1.79086 1.79086 0 4 0H74C76.2091 0 78 1.79086 78 4V18C78 20.2091 76.2091 22 74 22H4C1.79086 22 0 20.2091 0 18V4Z"/>
</mask>
<path d="M0 4C0 1.79086 1.79086 0 4 0H74C76.2091 0 78 1.79086 78 4V18C78 20.2091 76.2091 22 74 22H4C1.79086 22 0 20.2091 0 18V4Z" fill="#EDFDFD"/>
<path d="M4 0V1H74V0V-1H4V0ZM78 4H77V18H78H79V4H78ZM74 22V21H4V22V23H74V22ZM0 18H1V4H0H-1V18H0ZM4 22V21C2.34315 21 1 19.6569 1 18H0H-1C-1 20.7614 1.23858 23 4 23V22ZM78 18H77C77 19.6569 75.6569 21 74 21V22V23C76.7614 23 79 20.7614 79 18H78ZM74 0V1C75.6569 1 77 2.34315 77 4H78H79C79 1.23858 76.7614 -1 74 -1V0ZM4 0V-1C1.23858 -1 -1 1.23858 -1 4H0H1C1 2.34315 2.34315 1 4 1V0Z" fill="#9DECF9" mask="url(#path-1-inside-1_4732_188006)"/>
<path d="M13.1002 9.49995C13.1002 8.17433 14.1746 7.09995 15.5002 7.09995C16.8258 7.09995 17.9002 8.17433 17.9002 9.49995C17.9002 10.8256 16.8258 11.9 15.5002 11.9C15.3052 11.9 15.1158 11.8775 14.9358 11.8325C14.7839 11.795 14.6227 11.84 14.5121 11.9525L13.9646 12.5H12.9502C12.7008 12.5 12.5002 12.7006 12.5002 12.95V13.7H11.7502C11.5008 13.7 11.3002 13.9006 11.3002 14.15V14.9H10.1002V13.4356L13.0477 10.4881C13.1583 10.3775 13.2033 10.2162 13.1677 10.0643C13.1246 9.88433 13.1002 9.69495 13.1002 9.49995ZM15.5002 6.19995C13.6777 6.19995 12.2002 7.67745 12.2002 9.49995C12.2002 9.67808 12.2133 9.85245 12.2414 10.0231L9.33145 12.9312C9.24707 13.0156 9.2002 13.13 9.2002 13.25V15.35C9.2002 15.5993 9.40082 15.8 9.6502 15.8H11.7502C11.9996 15.8 12.2002 15.5993 12.2002 15.35V14.6H12.9502C13.1996 14.6 13.4002 14.3993 13.4002 14.15V13.4H14.1502C14.2702 13.4 14.3846 13.3531 14.4689 13.2687L14.9789 12.7587C15.1496 12.785 15.3239 12.8 15.5021 12.8C17.3246 12.8 18.8021 11.3225 18.8021 9.49995C18.8021 7.67745 17.3227 6.19995 15.5002 6.19995ZM16.1002 9.49995C16.2593 9.49995 16.4119 9.43674 16.5245 9.32422C16.637 9.21169 16.7002 9.05908 16.7002 8.89995C16.7002 8.74082 16.637 8.58821 16.5245 8.47569C16.4119 8.36317 16.2593 8.29995 16.1002 8.29995C15.9411 8.29995 15.7885 8.36317 15.6759 8.47569C15.5634 8.58821 15.5002 8.74082 15.5002 8.89995C15.5002 9.05908 15.5634 9.21169 15.6759 9.32422C15.7885 9.43674 15.9411 9.49995 16.1002 9.49995Z" fill="#086F83"/>
<path d="M25.08 15V7.128H26.076V15H25.08ZM28.1363 15V9.168H28.9523L29.0363 10.008H29.0723C29.3523 9.728 29.6483 9.496 29.9603 9.312C30.2723 9.12 30.6283 9.024 31.0283 9.024C31.6443 9.024 32.0923 9.22 32.3723 9.612C32.6603 9.996 32.8043 10.56 32.8043 11.304V15H31.8203V11.436C31.8203 10.884 31.7323 10.488 31.5563 10.248C31.3883 10 31.1083 9.876 30.7163 9.876C30.4203 9.876 30.1523 9.952 29.9123 10.104C29.6803 10.256 29.4163 10.48 29.1203 10.776V15H28.1363ZM34.2068 12.372V11.616H36.9668V12.372H34.2068ZM38.5214 15V7.128H39.5174V10.428H43.1894V7.128H44.1854V15H43.1894V11.292H39.5174V15H38.5214ZM48.5215 15.144C48.0495 15.144 47.6055 15.024 47.1895 14.784C46.7815 14.544 46.4495 14.196 46.1935 13.74C45.9455 13.284 45.8215 12.736 45.8215 12.096C45.8215 11.44 45.9455 10.884 46.1935 10.428C46.4495 9.972 46.7815 9.624 47.1895 9.384C47.6055 9.144 48.0495 9.024 48.5215 9.024C49.0015 9.024 49.4455 9.144 49.8535 9.384C50.2615 9.624 50.5895 9.972 50.8375 10.428C51.0935 10.884 51.2215 11.44 51.2215 12.096C51.2215 12.736 51.0935 13.284 50.8375 13.74C50.5895 14.196 50.2615 14.544 49.8535 14.784C49.4455 15.024 49.0015 15.144 48.5215 15.144ZM48.5215 14.328C48.8575 14.328 49.1535 14.236 49.4095 14.052C49.6655 13.86 49.8615 13.596 49.9975 13.26C50.1335 12.924 50.2015 12.536 50.2015 12.096C50.2015 11.648 50.1335 11.256 49.9975 10.92C49.8615 10.576 49.6655 10.312 49.4095 10.128C49.1535 9.936 48.8575 9.84 48.5215 9.84C48.1855 9.84 47.8895 9.936 47.6335 10.128C47.3855 10.312 47.1895 10.576 47.0455 10.92C46.9095 11.256 46.8415 11.648 46.8415 12.096C46.8415 12.536 46.9095 12.924 47.0455 13.26C47.1895 13.596 47.3855 13.86 47.6335 14.052C47.8895 14.236 48.1855 14.328 48.5215 14.328ZM54.4614 15.144C53.8454 15.144 53.3934 14.952 53.1054 14.568C52.8254 14.176 52.6854 13.608 52.6854 12.864V9.168H53.6694V12.732C53.6694 13.276 53.7534 13.672 53.9214 13.92C54.0974 14.16 54.3774 14.28 54.7614 14.28C55.0574 14.28 55.3214 14.204 55.5534 14.052C55.7934 13.892 56.0534 13.644 56.3334 13.308V9.168H57.3174V15H56.5014L56.4174 14.088H56.3814C56.1174 14.408 55.8294 14.664 55.5174 14.856C55.2134 15.048 54.8614 15.144 54.4614 15.144ZM60.8088 15.144C60.3848 15.144 59.9808 15.072 59.5968 14.928C59.2208 14.776 58.9008 14.568 58.6368 14.304L59.0928 13.728C59.3488 13.936 59.6128 14.096 59.8848 14.208C60.1648 14.32 60.4848 14.376 60.8448 14.376C61.2288 14.376 61.5168 14.288 61.7088 14.112C61.9008 13.928 61.9968 13.712 61.9968 13.464C61.9968 13.264 61.9288 13.1 61.7928 12.972C61.6648 12.836 61.5008 12.724 61.3008 12.636C61.1088 12.54 60.9008 12.452 60.6768 12.372C60.3888 12.268 60.1128 12.148 59.8488 12.012C59.5848 11.868 59.3688 11.692 59.2008 11.484C59.0408 11.268 58.9608 11 58.9608 10.68C58.9608 10.208 59.1368 9.816 59.4888 9.504C59.8488 9.184 60.3448 9.024 60.9768 9.024C61.3368 9.024 61.6728 9.088 61.9848 9.216C62.2968 9.336 62.5648 9.492 62.7888 9.684L62.3328 10.248C62.1248 10.104 61.9128 9.992 61.6968 9.912C61.4808 9.832 61.2408 9.792 60.9768 9.792C60.6088 9.792 60.3368 9.876 60.1608 10.044C59.9928 10.212 59.9088 10.408 59.9088 10.632C59.9088 10.808 59.9608 10.956 60.0648 11.076C60.1688 11.188 60.3128 11.288 60.4968 11.376C60.6888 11.464 60.9048 11.548 61.1448 11.628C61.4488 11.74 61.7368 11.868 62.0088 12.012C62.2888 12.148 62.5128 12.328 62.6808 12.552C62.8568 12.768 62.9448 13.052 62.9448 13.404C62.9448 13.724 62.8608 14.016 62.6928 14.28C62.5328 14.536 62.2928 14.744 61.9728 14.904C61.6608 15.064 61.2728 15.144 60.8088 15.144ZM66.6761 15.144C66.1561 15.144 65.6801 15.024 65.2481 14.784C64.8241 14.536 64.4881 14.188 64.2401 13.74C63.9921 13.284 63.8681 12.732 63.8681 12.084C63.8681 11.452 63.9961 10.908 64.2521 10.452C64.5081 9.996 64.8361 9.644 65.2361 9.396C65.6361 9.148 66.0601 9.024 66.5081 9.024C67.0041 9.024 67.4241 9.14 67.7681 9.372C68.1201 9.596 68.3841 9.912 68.5601 10.32C68.7361 10.728 68.8241 11.208 68.8241 11.76C68.8241 11.864 68.8201 11.964 68.8121 12.06C68.8121 12.156 68.8001 12.252 68.7761 12.348H64.5761V11.568H67.9361C67.9361 11.008 67.8121 10.58 67.5641 10.284C67.3241 9.98 66.9761 9.828 66.5201 9.828C66.2561 9.828 65.9961 9.904 65.7401 10.056C65.4841 10.2 65.2721 10.436 65.1041 10.764C64.9441 11.092 64.8641 11.528 64.8641 12.072C64.8641 12.568 64.9481 12.984 65.1161 13.32C65.2921 13.656 65.5281 13.912 65.8241 14.088C66.1201 14.256 66.4441 14.34 66.7961 14.34C67.0761 14.34 67.3361 14.3 67.5761 14.22C67.8241 14.14 68.0481 14.032 68.2481 13.896L68.6081 14.544C68.3521 14.72 68.0641 14.864 67.7441 14.976C67.4321 15.088 67.0761 15.144 66.6761 15.144Z" fill="#086F83"/>
</svg>
