<svg width="77" height="22" viewBox="0 0 77 22" fill="none" xmlns="http://www.w3.org/2000/svg">
<mask id="path-1-inside-1_4732_188009" fill="white">
<path d="M0 4C0 1.79086 1.79086 0 4 0H73C75.2091 0 77 1.79086 77 4V18C77 20.2091 75.2091 22 73 22H4C1.79086 22 0 20.2091 0 18V4Z"/>
</mask>
<path d="M0 4C0 1.79086 1.79086 0 4 0H73C75.2091 0 77 1.79086 77 4V18C77 20.2091 75.2091 22 73 22H4C1.79086 22 0 20.2091 0 18V4Z" fill="#FFFFF0"/>
<path d="M4 0V1H73V0V-1H4V0ZM77 4H76V18H77H78V4H77ZM73 22V21H4V22V23H73V22ZM0 18H1V4H0H-1V18H0ZM4 22V21C2.34315 21 1 19.6569 1 18H0H-1C-1 20.7614 1.23858 23 4 23V22ZM77 18H76C76 19.6569 74.6569 21 73 21V22V23C75.7614 23 78 20.7614 78 18H77ZM73 0V1C74.6569 1 76 2.34315 76 4H77H78C78 1.23858 75.7614 -1 73 -1V0ZM4 0V-1C1.23858 -1 -1 1.23858 -1 4H0H1C1 2.34315 2.34315 1 4 1V0Z" fill="#FAF089" mask="url(#path-1-inside-1_4732_188009)"/>
<path d="M9.60634 7.07978C9.44384 6.95165 9.2079 6.98134 9.07978 7.14384C8.95165 7.30634 8.98134 7.54228 9.14384 7.6704L18.3938 14.9204C18.5563 15.0485 18.7923 15.0188 18.9204 14.8563C19.0485 14.6938 19.0188 14.4579 18.8563 14.3298L14.5204 10.9313C15.3735 10.7032 16.0001 9.92509 16.0001 9.00009C16.0001 7.8954 15.1048 7.00009 14.0001 7.00009C12.9095 7.00009 12.0235 7.87196 12.0001 8.95634L9.60634 7.07978ZM13.5392 10.1626L12.9829 9.72665C12.836 9.52196 12.7501 9.2704 12.7501 9.00009C12.7501 8.30946 13.3095 7.75009 14.0001 7.75009C14.6907 7.75009 15.2501 8.30946 15.2501 9.00009C15.2501 9.69071 14.6907 10.2501 14.0001 10.2501C13.8376 10.2501 13.6813 10.2188 13.5392 10.1626ZM13.1298 11.7548C11.6641 11.8345 10.5001 13.0501 10.5001 14.536C10.5001 14.7923 10.7079 15.0001 10.9642 15.0001H17.036C17.097 15.0001 17.1548 14.9892 17.2079 14.9673L16.2985 14.2501H11.2704C11.4095 13.261 12.2595 12.5001 13.286 12.5001H14.0767L13.1298 11.7548Z" fill="#744210"/>
<path d="M25.08 15V7.128H26.172L28.968 12.024C29.12 12.288 29.264 12.564 29.4 12.852C29.536 13.132 29.672 13.42 29.808 13.716H29.856C29.832 13.308 29.804 12.892 29.772 12.468C29.74 12.036 29.724 11.62 29.724 11.22V7.128H30.684V15H29.592L26.796 10.104C26.652 9.84 26.504 9.564 26.352 9.276C26.208 8.988 26.072 8.7 25.944 8.412H25.896C25.928 8.804 25.956 9.208 25.98 9.624C26.012 10.04 26.028 10.46 26.028 10.884V15H25.08ZM35.0215 15.144C34.5495 15.144 34.1055 15.024 33.6895 14.784C33.2815 14.544 32.9495 14.196 32.6935 13.74C32.4455 13.284 32.3215 12.736 32.3215 12.096C32.3215 11.44 32.4455 10.884 32.6935 10.428C32.9495 9.972 33.2815 9.624 33.6895 9.384C34.1055 9.144 34.5495 9.024 35.0215 9.024C35.5015 9.024 35.9455 9.144 36.3535 9.384C36.7615 9.624 37.0895 9.972 37.3375 10.428C37.5935 10.884 37.7215 11.44 37.7215 12.096C37.7215 12.736 37.5935 13.284 37.3375 13.74C37.0895 14.196 36.7615 14.544 36.3535 14.784C35.9455 15.024 35.5015 15.144 35.0215 15.144ZM35.0215 14.328C35.3575 14.328 35.6535 14.236 35.9095 14.052C36.1655 13.86 36.3615 13.596 36.4975 13.26C36.6335 12.924 36.7015 12.536 36.7015 12.096C36.7015 11.648 36.6335 11.256 36.4975 10.92C36.3615 10.576 36.1655 10.312 35.9095 10.128C35.6535 9.936 35.3575 9.84 35.0215 9.84C34.6855 9.84 34.3895 9.936 34.1335 10.128C33.8855 10.312 33.6895 10.576 33.5455 10.92C33.4095 11.256 33.3415 11.648 33.3415 12.096C33.3415 12.536 33.4095 12.924 33.5455 13.26C33.6895 13.596 33.8855 13.86 34.1335 14.052C34.3895 14.236 34.6855 14.328 35.0215 14.328ZM43.9398 15.144C43.3798 15.144 42.8678 15.04 42.4038 14.832C41.9398 14.616 41.5318 14.328 41.1798 13.968L41.7438 13.32C42.0238 13.616 42.3558 13.848 42.7398 14.016C43.1318 14.184 43.5358 14.268 43.9518 14.268C44.4718 14.268 44.8758 14.152 45.1638 13.92C45.4518 13.68 45.5958 13.368 45.5958 12.984C45.5958 12.712 45.5358 12.496 45.4158 12.336C45.3038 12.176 45.1478 12.04 44.9478 11.928C44.7558 11.816 44.5358 11.704 44.2878 11.592L43.1598 11.1C42.9038 10.988 42.6518 10.848 42.4038 10.68C42.1638 10.512 41.9638 10.3 41.8038 10.044C41.6438 9.78 41.5638 9.456 41.5638 9.072C41.5638 8.672 41.6678 8.316 41.8758 8.004C42.0918 7.684 42.3838 7.436 42.7518 7.26C43.1278 7.076 43.5558 6.984 44.0358 6.984C44.5158 6.984 44.9558 7.072 45.3558 7.248C45.7558 7.424 46.0918 7.652 46.3638 7.932L45.8238 8.58C45.5758 8.364 45.3038 8.192 45.0078 8.064C44.7118 7.928 44.3878 7.86 44.0358 7.86C43.5958 7.86 43.2398 7.964 42.9678 8.172C42.7038 8.38 42.5718 8.66 42.5718 9.012C42.5718 9.26 42.6358 9.464 42.7638 9.624C42.8918 9.784 43.0558 9.916 43.2558 10.02C43.4638 10.124 43.6718 10.224 43.8798 10.32L44.9958 10.8C45.3078 10.936 45.5838 11.092 45.8238 11.268C46.0718 11.444 46.2638 11.664 46.3998 11.928C46.5438 12.192 46.6158 12.516 46.6158 12.9C46.6158 13.316 46.5078 13.696 46.2918 14.04C46.0838 14.376 45.7758 14.644 45.3678 14.844C44.9678 15.044 44.4918 15.144 43.9398 15.144ZM48.0699 15V6.456H49.0539V8.784L49.0179 9.984C49.2979 9.72 49.5899 9.496 49.8939 9.312C50.2059 9.12 50.5619 9.024 50.9619 9.024C51.5779 9.024 52.0259 9.22 52.3059 9.612C52.5939 9.996 52.7379 10.56 52.7379 11.304V15H51.7539V11.436C51.7539 10.884 51.6659 10.488 51.4899 10.248C51.3219 10 51.0419 9.876 50.6499 9.876C50.3539 9.876 50.0859 9.952 49.8459 10.104C49.6139 10.256 49.3499 10.48 49.0539 10.776V15H48.0699ZM56.8653 15.144C56.3933 15.144 55.9493 15.024 55.5333 14.784C55.1253 14.544 54.7933 14.196 54.5373 13.74C54.2893 13.284 54.1653 12.736 54.1653 12.096C54.1653 11.44 54.2893 10.884 54.5373 10.428C54.7933 9.972 55.1253 9.624 55.5333 9.384C55.9493 9.144 56.3933 9.024 56.8653 9.024C57.3453 9.024 57.7893 9.144 58.1973 9.384C58.6053 9.624 58.9333 9.972 59.1813 10.428C59.4373 10.884 59.5653 11.44 59.5653 12.096C59.5653 12.736 59.4373 13.284 59.1813 13.74C58.9333 14.196 58.6053 14.544 58.1973 14.784C57.7893 15.024 57.3453 15.144 56.8653 15.144ZM56.8653 14.328C57.2013 14.328 57.4973 14.236 57.7533 14.052C58.0093 13.86 58.2053 13.596 58.3413 13.26C58.4773 12.924 58.5453 12.536 58.5453 12.096C58.5453 11.648 58.4773 11.256 58.3413 10.92C58.2053 10.576 58.0093 10.312 57.7533 10.128C57.4973 9.936 57.2013 9.84 56.8653 9.84C56.5293 9.84 56.2333 9.936 55.9773 10.128C55.7293 10.312 55.5333 10.576 55.3893 10.92C55.2533 11.256 55.1853 11.648 55.1853 12.096C55.1853 12.536 55.2533 12.924 55.3893 13.26C55.5333 13.596 55.7293 13.86 55.9773 14.052C56.2333 14.236 56.5293 14.328 56.8653 14.328ZM61.9783 15L60.3583 9.168H61.3903L62.2423 12.54C62.3063 12.804 62.3663 13.068 62.4223 13.332C62.4783 13.596 62.5303 13.884 62.5783 14.196H62.6263C62.6903 13.884 62.7503 13.596 62.8063 13.332C62.8703 13.068 62.9343 12.804 62.9983 12.54L63.8623 9.168H64.9423L65.8183 12.54C65.8903 12.804 65.9543 13.068 66.0103 13.332C66.0743 13.596 66.1383 13.884 66.2023 14.196H66.2503C66.3143 13.884 66.3743 13.596 66.4303 13.332C66.4863 13.068 66.5423 12.804 66.5983 12.54L67.4503 9.168H68.4103L66.8383 15H65.5543L64.7743 11.88C64.7103 11.608 64.6463 11.34 64.5823 11.076C64.5263 10.804 64.4663 10.496 64.4023 10.152H64.3543C64.2983 10.496 64.2383 10.804 64.1743 11.076C64.1183 11.348 64.0543 11.616 63.9823 11.88L63.2023 15H61.9783Z" fill="#744210"/>
</svg>
