<svg width="94" height="22" viewBox="0 0 94 22" fill="none" xmlns="http://www.w3.org/2000/svg">
<mask id="path-1-inside-1_4732_188005" fill="white">
<path d="M0 4C0 1.79086 1.79086 0 4 0H90C92.2091 0 94 1.79086 94 4V18C94 20.2091 92.2091 22 90 22H4C1.79086 22 0 20.2091 0 18V4Z"/>
</mask>
<path d="M0 4C0 1.79086 1.79086 0 4 0H90C92.2091 0 94 1.79086 94 4V18C94 20.2091 92.2091 22 90 22H4C1.79086 22 0 20.2091 0 18V4Z" fill="#FFFAF0"/>
<path d="M4 0V1H90V0V-1H4V0ZM94 4H93V18H94H95V4H94ZM90 22V21H4V22V23H90V22ZM0 18H1V4H0H-1V18H0ZM4 22V21C2.34315 21 1 19.6569 1 18H0H-1C-1 20.7614 1.23858 23 4 23V22ZM94 18H93C93 19.6569 91.6569 21 90 21V22V23C92.7614 23 95 20.7614 95 18H94ZM90 0V1C91.6569 1 93 2.34315 93 4H94H95C95 1.23858 92.7614 -1 90 -1V0ZM4 0V-1C1.23858 -1 -1 1.23858 -1 4H0H1C1 2.34315 2.34315 1 4 1V0Z" fill="#FBD38D" mask="url(#path-1-inside-1_4732_188005)"/>
<path d="M12.5 7.75C12.8315 7.75 13.1495 7.8817 13.3839 8.11612C13.6183 8.35054 13.75 8.66848 13.75 9C13.75 9.33152 13.6183 9.64946 13.3839 9.88388C13.1495 10.1183 12.8315 10.25 12.5 10.25C12.1685 10.25 11.8505 10.1183 11.6161 9.88388C11.3817 9.64946 11.25 9.33152 11.25 9C11.25 8.66848 11.3817 8.35054 11.6161 8.11612C11.8505 7.8817 12.1685 7.75 12.5 7.75ZM12.5 11C13.0304 11 13.5391 10.7893 13.9142 10.4142C14.2893 10.0391 14.5 9.53043 14.5 9C14.5 8.46957 14.2893 7.96086 13.9142 7.58579C13.5391 7.21071 13.0304 7 12.5 7C11.9696 7 11.4609 7.21071 11.0858 7.58579C10.7107 7.96086 10.5 8.46957 10.5 9C10.5 9.53043 10.7107 10.0391 11.0858 10.4142C11.4609 10.7893 11.9696 11 12.5 11ZM11.7859 12.5H13.2141C14.2406 12.5 15.0906 13.2609 15.2297 14.25H9.77031C9.90937 13.2609 10.7594 12.5 11.7859 12.5ZM11.7859 11.75C10.2469 11.75 9 12.9969 9 14.5359C9 14.7922 9.20781 15 9.46406 15H15.5359C15.7922 15 16 14.7922 16 14.5359C16 12.9969 14.7531 11.75 13.2141 11.75H11.7859Z" fill="#7B341E"/>
<path d="M17.2168 8.86914C17.3646 8.76602 17.5703 8.77716 17.7061 8.90723L19.0801 10.2197L19.082 10.2217C19.1559 10.294 19.2002 10.3938 19.2002 10.501C19.2001 10.6067 19.1562 10.7083 19.0801 10.7812L18.9395 10.916L18.9375 10.9141L17.7041 12.0928V12.0938C17.5502 12.2396 17.3044 12.2362 17.1562 12.0801C17.01 11.9258 17.0145 11.6817 17.1689 11.5332L17.1699 11.5322L17.8447 10.8877H15.6875C15.5 10.8877 15.3438 10.7557 15.3076 10.5791L15.2998 10.501L15.3076 10.4219C15.3438 10.2453 15.5001 10.1133 15.6875 10.1133H17.8457L17.1709 9.46777C17.0149 9.31957 17.0115 9.07479 17.1572 8.9209L17.2168 8.86914Z" fill="#7B341E" stroke="#7B341E" stroke-width="0.4"/>
<path d="M26.712 15V7.98H24.336V7.128H30.096V7.98H27.72V15H26.712ZM30.8668 15V9.168H31.6828L31.7668 10.224H31.8028C31.9948 9.856 32.2348 9.564 32.5228 9.348C32.8108 9.132 33.1228 9.024 33.4588 9.024C33.5868 9.024 33.6988 9.032 33.7948 9.048C33.8908 9.064 33.9868 9.096 34.0828 9.144L33.8668 9.984C33.7788 9.96 33.6948 9.944 33.6148 9.936C33.5428 9.92 33.4468 9.912 33.3268 9.912C33.0788 9.912 32.8188 10.012 32.5468 10.212C32.2828 10.412 32.0508 10.76 31.8508 11.256V15H30.8668ZM36.078 15.144C35.758 15.144 35.466 15.08 35.202 14.952C34.946 14.816 34.742 14.628 34.59 14.388C34.438 14.14 34.362 13.84 34.362 13.488C34.362 12.832 34.65 12.336 35.226 12C35.802 11.664 36.714 11.428 37.962 11.292C37.954 11.052 37.914 10.82 37.842 10.596C37.778 10.372 37.658 10.192 37.482 10.056C37.306 9.92 37.062 9.852 36.75 9.852C36.414 9.852 36.098 9.916 35.802 10.044C35.506 10.164 35.242 10.3 35.01 10.452L34.626 9.78C34.802 9.66 35.01 9.544 35.25 9.432C35.49 9.312 35.75 9.216 36.03 9.144C36.31 9.064 36.606 9.024 36.918 9.024C37.39 9.024 37.774 9.124 38.07 9.324C38.374 9.516 38.594 9.792 38.73 10.152C38.874 10.512 38.946 10.936 38.946 11.424V15H38.13L38.046 14.304H38.01C37.73 14.536 37.43 14.736 37.11 14.904C36.79 15.064 36.446 15.144 36.078 15.144ZM36.354 14.328C36.642 14.328 36.91 14.264 37.158 14.136C37.414 14.008 37.682 13.82 37.962 13.572V12C37.306 12.08 36.786 12.184 36.402 12.312C36.026 12.432 35.754 12.584 35.586 12.768C35.418 12.952 35.334 13.172 35.334 13.428C35.334 13.748 35.434 13.98 35.634 14.124C35.834 14.26 36.074 14.328 36.354 14.328ZM40.7809 15V9.168H41.5969L41.6809 10.008H41.7169C41.9969 9.728 42.2929 9.496 42.6049 9.312C42.9169 9.12 43.2729 9.024 43.6729 9.024C44.2889 9.024 44.7369 9.22 45.0169 9.612C45.3049 9.996 45.4489 10.56 45.4489 11.304V15H44.4649V11.436C44.4649 10.884 44.3769 10.488 44.2009 10.248C44.0329 10 43.7529 9.876 43.3609 9.876C43.0649 9.876 42.7969 9.952 42.5569 10.104C42.3249 10.256 42.0609 10.48 41.7649 10.776V15H40.7809ZM48.8674 15.144C48.4434 15.144 48.0394 15.072 47.6554 14.928C47.2794 14.776 46.9594 14.568 46.6954 14.304L47.1514 13.728C47.4074 13.936 47.6714 14.096 47.9434 14.208C48.2234 14.32 48.5434 14.376 48.9034 14.376C49.2874 14.376 49.5754 14.288 49.7674 14.112C49.9594 13.928 50.0554 13.712 50.0554 13.464C50.0554 13.264 49.9874 13.1 49.8514 12.972C49.7234 12.836 49.5594 12.724 49.3594 12.636C49.1674 12.54 48.9594 12.452 48.7354 12.372C48.4474 12.268 48.1714 12.148 47.9074 12.012C47.6434 11.868 47.4274 11.692 47.2594 11.484C47.0994 11.268 47.0194 11 47.0194 10.68C47.0194 10.208 47.1954 9.816 47.5474 9.504C47.9074 9.184 48.4034 9.024 49.0354 9.024C49.3954 9.024 49.7314 9.088 50.0434 9.216C50.3554 9.336 50.6234 9.492 50.8474 9.684L50.3914 10.248C50.1834 10.104 49.9714 9.992 49.7554 9.912C49.5394 9.832 49.2994 9.792 49.0354 9.792C48.6674 9.792 48.3954 9.876 48.2194 10.044C48.0514 10.212 47.9674 10.408 47.9674 10.632C47.9674 10.808 48.0194 10.956 48.1234 11.076C48.2274 11.188 48.3714 11.288 48.5554 11.376C48.7474 11.464 48.9634 11.548 49.2034 11.628C49.5074 11.74 49.7954 11.868 50.0674 12.012C50.3474 12.148 50.5714 12.328 50.7394 12.552C50.9154 12.768 51.0034 13.052 51.0034 13.404C51.0034 13.724 50.9194 14.016 50.7514 14.28C50.5914 14.536 50.3514 14.744 50.0314 14.904C49.7194 15.064 49.3314 15.144 48.8674 15.144ZM52.5387 15V8.244C52.5387 7.852 52.5987 7.512 52.7187 7.224C52.8387 6.928 53.0227 6.704 53.2707 6.552C53.5267 6.392 53.8507 6.312 54.2427 6.312C54.4187 6.312 54.5907 6.332 54.7587 6.372C54.9347 6.404 55.0867 6.448 55.2147 6.504L54.9987 7.224C54.7667 7.152 54.5467 7.116 54.3387 7.116C54.0667 7.116 53.8627 7.212 53.7267 7.404C53.5907 7.588 53.5227 7.868 53.5227 8.244V15H52.5387ZM51.6747 9.972V9.228L52.5867 9.168H54.7587V9.972H51.6747ZM58.1214 15.144C57.6014 15.144 57.1254 15.024 56.6934 14.784C56.2694 14.536 55.9334 14.188 55.6854 13.74C55.4374 13.284 55.3134 12.732 55.3134 12.084C55.3134 11.452 55.4414 10.908 55.6974 10.452C55.9534 9.996 56.2814 9.644 56.6814 9.396C57.0814 9.148 57.5054 9.024 57.9534 9.024C58.4494 9.024 58.8694 9.14 59.2134 9.372C59.5654 9.596 59.8294 9.912 60.0054 10.32C60.1814 10.728 60.2694 11.208 60.2694 11.76C60.2694 11.864 60.2654 11.964 60.2574 12.06C60.2574 12.156 60.2454 12.252 60.2214 12.348H56.0214V11.568H59.3814C59.3814 11.008 59.2574 10.58 59.0094 10.284C58.7694 9.98 58.4214 9.828 57.9654 9.828C57.7014 9.828 57.4414 9.904 57.1854 10.056C56.9294 10.2 56.7174 10.436 56.5494 10.764C56.3894 11.092 56.3094 11.528 56.3094 12.072C56.3094 12.568 56.3934 12.984 56.5614 13.32C56.7374 13.656 56.9734 13.912 57.2694 14.088C57.5654 14.256 57.8894 14.34 58.2414 14.34C58.5214 14.34 58.7814 14.3 59.0214 14.22C59.2694 14.14 59.4934 14.032 59.6934 13.896L60.0534 14.544C59.7974 14.72 59.5094 14.864 59.1894 14.976C58.8774 15.088 58.5214 15.144 58.1214 15.144ZM61.7106 15V9.168H62.5266L62.6106 10.224H62.6466C62.8386 9.856 63.0786 9.564 63.3666 9.348C63.6546 9.132 63.9666 9.024 64.3026 9.024C64.4306 9.024 64.5426 9.032 64.6386 9.048C64.7346 9.064 64.8306 9.096 64.9266 9.144L64.7106 9.984C64.6226 9.96 64.5386 9.944 64.4586 9.936C64.3866 9.92 64.2906 9.912 64.1706 9.912C63.9226 9.912 63.6626 10.012 63.3906 10.212C63.1266 10.412 62.8946 10.76 62.6946 11.256V15H61.7106ZM71.2731 15.144C70.6171 15.144 70.0331 14.976 69.5211 14.64C69.0171 14.304 68.6211 13.828 68.3331 13.212C68.0531 12.596 67.9131 11.868 67.9131 11.028C67.9131 10.188 68.0531 9.468 68.3331 8.868C68.6211 8.26 69.0171 7.796 69.5211 7.476C70.0331 7.148 70.6171 6.984 71.2731 6.984C71.9371 6.984 72.5211 7.148 73.0251 7.476C73.5291 7.796 73.9251 8.26 74.2131 8.868C74.5011 9.468 74.6451 10.188 74.6451 11.028C74.6451 11.868 74.5011 12.596 74.2131 13.212C73.9251 13.828 73.5291 14.304 73.0251 14.64C72.5211 14.976 71.9371 15.144 71.2731 15.144ZM71.2731 14.256C71.7451 14.256 72.1531 14.124 72.4971 13.86C72.8491 13.596 73.1211 13.224 73.3131 12.744C73.5051 12.256 73.6011 11.684 73.6011 11.028C73.6011 10.38 73.5051 9.82 73.3131 9.348C73.1211 8.876 72.8491 8.512 72.4971 8.256C72.1531 7.992 71.7451 7.86 71.2731 7.86C70.8091 7.86 70.4011 7.992 70.0491 8.256C69.6971 8.512 69.4251 8.876 69.2331 9.348C69.0411 9.82 68.9451 10.38 68.9451 11.028C68.9451 11.684 69.0411 12.256 69.2331 12.744C69.4251 13.224 69.6971 13.596 70.0491 13.86C70.4011 14.124 70.8091 14.256 71.2731 14.256ZM77.9458 15.144C77.3298 15.144 76.8778 14.952 76.5898 14.568C76.3098 14.176 76.1698 13.608 76.1698 12.864V9.168H77.1538V12.732C77.1538 13.276 77.2378 13.672 77.4058 13.92C77.5818 14.16 77.8618 14.28 78.2458 14.28C78.5418 14.28 78.8058 14.204 79.0378 14.052C79.2778 13.892 79.5378 13.644 79.8178 13.308V9.168H80.8018V15H79.9858L79.9018 14.088H79.8658C79.6018 14.408 79.3138 14.664 79.0018 14.856C78.6978 15.048 78.3458 15.144 77.9458 15.144ZM84.6052 15.108C83.9892 15.108 83.5572 14.928 83.3092 14.568C83.0612 14.208 82.9372 13.74 82.9372 13.164V9.972H82.0732V9.228L82.9852 9.168L83.1052 7.296H83.9332V9.168H85.5172V9.972H83.9332V13.176C83.9332 13.528 83.9972 13.804 84.1252 14.004C84.2612 14.204 84.4972 14.304 84.8332 14.304C84.9372 14.304 85.0452 14.296 85.1572 14.28C85.2692 14.256 85.3812 14.216 85.4932 14.16L85.7092 14.856C85.5572 14.928 85.3852 14.988 85.1932 15.036C85.0012 15.084 84.8052 15.108 84.6052 15.108Z" fill="#7B341E"/>
</svg>
