<svg width="98" height="22" viewBox="0 0 98 22" fill="none" xmlns="http://www.w3.org/2000/svg">
<mask id="path-1-inside-1_4732_188004" fill="white">
<path d="M0 4C0 1.79086 1.79086 0 4 0H94C96.2091 0 98 1.79086 98 4V18C98 20.2091 96.2091 22 94 22H4C1.79086 22 0 20.2091 0 18V4Z"/>
</mask>
<path d="M0 4C0 1.79086 1.79086 0 4 0H94C96.2091 0 98 1.79086 98 4V18C98 20.2091 96.2091 22 94 22H4C1.79086 22 0 20.2091 0 18V4Z" fill="black" fill-opacity="0.02"/>
<path d="M4 0V1H94V0V-1H4V0ZM98 4H97V18H98H99V4H98ZM94 22V21H4V22V23H94V22ZM0 18H1V4H0H-1V18H0ZM4 22V21C2.34314 21 1 19.6569 1 18H0H-1C-1 20.7614 1.23857 23 4 23V22ZM98 18H97C97 19.6569 95.6569 21 94 21V22V23C96.7614 23 99 20.7614 99 18H98ZM94 0V1C95.6569 1 97 2.34315 97 4H98H99C99 1.23858 96.7614 -1 94 -1V0ZM4 0V-1C1.23858 -1 -1 1.23858 -1 4H0H1C1 2.34315 2.34315 1 4 1V0Z" fill="#D9D9D9" mask="url(#path-1-inside-1_4732_188004)"/>
<path d="M12.5 10.25C12.8315 10.25 13.1495 10.1183 13.3839 9.88388C13.6183 9.64946 13.75 9.33152 13.75 9C13.75 8.66848 13.6183 8.35054 13.3839 8.11612C13.1495 7.8817 12.8315 7.75 12.5 7.75C12.1685 7.75 11.8505 7.8817 11.6161 8.11612C11.3817 8.35054 11.25 8.66848 11.25 9C11.25 9.33152 11.3817 9.64946 11.6161 9.88388C11.8505 10.1183 12.1685 10.25 12.5 10.25ZM12.5 7C13.0304 7 13.5391 7.21071 13.9142 7.58579C14.2893 7.96086 14.5 8.46957 14.5 9C14.5 9.53043 14.2893 10.0391 13.9142 10.4142C13.5391 10.7893 13.0304 11 12.5 11C11.9696 11 11.4609 10.7893 11.0858 10.4142C10.7107 10.0391 10.5 9.53043 10.5 9C10.5 8.46957 10.7107 7.96086 11.0858 7.58579C11.4609 7.21071 11.9696 7 12.5 7ZM9.77031 14.25H14.4453C14.6375 14.5437 14.8828 14.7984 15.1687 15H9.46406C9.20781 15 9 14.7922 9 14.5359C9 12.9969 10.2469 11.75 11.7859 11.75H12.5H13.2141C13.5359 11.75 13.8453 11.8047 14.1328 11.9047C14.0563 12.1437 14.0109 12.3953 14.0016 12.6578C13.7594 12.5563 13.4938 12.5 13.2141 12.5H11.7859C10.7594 12.5 9.90937 13.2609 9.77031 14.25ZM14.5 12.75C14.5 12.1533 14.7371 11.581 15.159 11.159C15.581 10.7371 16.1533 10.5 16.75 10.5C17.3467 10.5 17.919 10.7371 18.341 11.159C18.7629 11.581 19 12.1533 19 12.75C19 13.3467 18.7629 13.919 18.341 14.341C17.919 14.7629 17.3467 15 16.75 15C16.1533 15 15.581 14.7629 15.159 14.341C14.7371 13.919 14.5 13.3467 14.5 12.75ZM16.75 11.5C16.6125 11.5 16.5 11.6125 16.5 11.75V12.75C16.5 12.8875 16.6125 13 16.75 13H17.5C17.6375 13 17.75 12.8875 17.75 12.75C17.75 12.6125 17.6375 12.5 17.5 12.5H17V11.75C17 11.6125 16.8875 11.5 16.75 11.5Z" fill="black" fill-opacity="0.88"/>
<path d="M27.876 15.144C27.468 15.144 27.092 15.088 26.748 14.976C26.412 14.856 26.116 14.668 25.86 14.412C25.604 14.148 25.404 13.8 25.26 13.368C25.116 12.936 25.044 12.412 25.044 11.796V7.128H26.04V11.82C26.04 12.436 26.12 12.924 26.28 13.284C26.448 13.636 26.668 13.888 26.94 14.04C27.22 14.184 27.532 14.256 27.876 14.256C28.22 14.256 28.532 14.184 28.812 14.04C29.1 13.888 29.328 13.636 29.496 13.284C29.664 12.924 29.748 12.436 29.748 11.82V7.128H30.696V11.796C30.696 12.412 30.624 12.936 30.48 13.368C30.344 13.8 30.148 14.148 29.892 14.412C29.636 14.668 29.336 14.856 28.992 14.976C28.648 15.088 28.276 15.144 27.876 15.144ZM32.7184 15V9.168H33.5344L33.6184 10.008H33.6544C33.9344 9.728 34.2304 9.496 34.5424 9.312C34.8544 9.12 35.2104 9.024 35.6104 9.024C36.2264 9.024 36.6744 9.22 36.9544 9.612C37.2424 9.996 37.3864 10.56 37.3864 11.304V15H36.4024V11.436C36.4024 10.884 36.3144 10.488 36.1384 10.248C35.9704 10 35.6904 9.876 35.2984 9.876C35.0024 9.876 34.7344 9.952 34.4944 10.104C34.2624 10.256 33.9984 10.48 33.7024 10.776V15H32.7184ZM41.5969 15.144C41.0769 15.144 40.6089 15.024 40.1929 14.784C39.7769 14.544 39.4489 14.196 39.2089 13.74C38.9689 13.284 38.8489 12.736 38.8489 12.096C38.8489 11.44 38.9769 10.884 39.2329 10.428C39.4969 9.972 39.8409 9.624 40.2649 9.384C40.6969 9.144 41.1609 9.024 41.6569 9.024C42.0409 9.024 42.3689 9.088 42.6409 9.216C42.9209 9.344 43.1609 9.508 43.3609 9.708L42.8689 10.32C42.7249 10.176 42.5529 10.064 42.3529 9.984C42.1609 9.896 41.9409 9.852 41.6929 9.852C41.3489 9.852 41.0369 9.948 40.7569 10.14C40.4849 10.324 40.2689 10.584 40.1089 10.92C39.9489 11.256 39.8689 11.648 39.8689 12.096C39.8689 12.536 39.9449 12.924 40.0969 13.26C40.2489 13.596 40.4609 13.86 40.7329 14.052C41.0049 14.236 41.3209 14.328 41.6809 14.328C41.9529 14.328 42.2049 14.276 42.4369 14.172C42.6689 14.068 42.8689 13.936 43.0369 13.776L43.4689 14.376C43.2209 14.608 42.9409 14.796 42.6289 14.94C42.3169 15.076 41.9729 15.144 41.5969 15.144ZM46.7754 15.144C46.3034 15.144 45.8594 15.024 45.4434 14.784C45.0354 14.544 44.7034 14.196 44.4474 13.74C44.1994 13.284 44.0754 12.736 44.0754 12.096C44.0754 11.44 44.1994 10.884 44.4474 10.428C44.7034 9.972 45.0354 9.624 45.4434 9.384C45.8594 9.144 46.3034 9.024 46.7754 9.024C47.2554 9.024 47.6994 9.144 48.1074 9.384C48.5154 9.624 48.8434 9.972 49.0914 10.428C49.3474 10.884 49.4754 11.44 49.4754 12.096C49.4754 12.736 49.3474 13.284 49.0914 13.74C48.8434 14.196 48.5154 14.544 48.1074 14.784C47.6994 15.024 47.2554 15.144 46.7754 15.144ZM46.7754 14.328C47.1114 14.328 47.4074 14.236 47.6634 14.052C47.9194 13.86 48.1154 13.596 48.2514 13.26C48.3874 12.924 48.4554 12.536 48.4554 12.096C48.4554 11.648 48.3874 11.256 48.2514 10.92C48.1154 10.576 47.9194 10.312 47.6634 10.128C47.4074 9.936 47.1114 9.84 46.7754 9.84C46.4394 9.84 46.1434 9.936 45.8874 10.128C45.6394 10.312 45.4434 10.576 45.2994 10.92C45.1634 11.256 45.0954 11.648 45.0954 12.096C45.0954 12.536 45.1634 12.924 45.2994 13.26C45.4434 13.596 45.6394 13.86 45.8874 14.052C46.1434 14.236 46.4394 14.328 46.7754 14.328ZM51.0113 15V9.168H51.8273L51.9113 10.008H51.9473C52.2273 9.728 52.5233 9.496 52.8353 9.312C53.1473 9.12 53.5033 9.024 53.9033 9.024C54.5193 9.024 54.9673 9.22 55.2473 9.612C55.5353 9.996 55.6793 10.56 55.6793 11.304V15H54.6953V11.436C54.6953 10.884 54.6073 10.488 54.4313 10.248C54.2633 10 53.9833 9.876 53.5913 9.876C53.2953 9.876 53.0273 9.952 52.7873 10.104C52.5553 10.256 52.2913 10.48 51.9953 10.776V15H51.0113ZM57.7418 15V8.244C57.7418 7.852 57.8018 7.512 57.9218 7.224C58.0418 6.928 58.2258 6.704 58.4738 6.552C58.7298 6.392 59.0538 6.312 59.4458 6.312C59.6218 6.312 59.7938 6.332 59.9618 6.372C60.1378 6.404 60.2898 6.448 60.4178 6.504L60.2018 7.224C59.9698 7.152 59.7498 7.116 59.5418 7.116C59.2698 7.116 59.0658 7.212 58.9298 7.404C58.7938 7.588 58.7258 7.868 58.7258 8.244V15H57.7418ZM56.8778 9.972V9.228L57.7898 9.168H59.9618V9.972H56.8778ZM61.0778 15V9.168H62.0618V15H61.0778ZM61.5698 7.968C61.3778 7.968 61.2178 7.908 61.0898 7.788C60.9698 7.668 60.9098 7.512 60.9098 7.32C60.9098 7.128 60.9698 6.972 61.0898 6.852C61.2178 6.732 61.3778 6.672 61.5698 6.672C61.7618 6.672 61.9178 6.732 62.0378 6.852C62.1658 6.972 62.2298 7.128 62.2298 7.32C62.2298 7.512 62.1658 7.668 62.0378 7.788C61.9178 7.908 61.7618 7.968 61.5698 7.968ZM64.0309 15V9.168H64.8469L64.9309 10.224H64.9669C65.1589 9.856 65.3989 9.564 65.6869 9.348C65.9749 9.132 66.2869 9.024 66.6229 9.024C66.7509 9.024 66.8629 9.032 66.9589 9.048C67.0549 9.064 67.1509 9.096 67.2469 9.144L67.0309 9.984C66.9429 9.96 66.8589 9.944 66.7789 9.936C66.7069 9.92 66.6109 9.912 66.4909 9.912C66.2429 9.912 65.9829 10.012 65.7109 10.212C65.4469 10.412 65.2149 10.76 65.0149 11.256V15H64.0309ZM68.191 15V9.168H69.007L69.091 10.008H69.127C69.383 9.736 69.659 9.504 69.955 9.312C70.259 9.12 70.587 9.024 70.939 9.024C71.387 9.024 71.735 9.124 71.983 9.324C72.239 9.524 72.427 9.796 72.547 10.14C72.851 9.804 73.159 9.536 73.471 9.336C73.783 9.128 74.115 9.024 74.467 9.024C75.075 9.024 75.523 9.22 75.811 9.612C76.099 9.996 76.243 10.56 76.243 11.304V15H75.259V11.436C75.259 10.884 75.171 10.488 74.995 10.248C74.819 10 74.547 9.876 74.179 9.876C73.947 9.876 73.711 9.952 73.471 10.104C73.239 10.248 72.987 10.472 72.715 10.776V15H71.731V11.436C71.731 10.884 71.643 10.488 71.467 10.248C71.291 10 71.015 9.876 70.639 9.876C70.199 9.876 69.711 10.176 69.175 10.776V15H68.191ZM80.5043 15.144C79.9843 15.144 79.5083 15.024 79.0763 14.784C78.6523 14.536 78.3163 14.188 78.0683 13.74C77.8203 13.284 77.6963 12.732 77.6963 12.084C77.6963 11.452 77.8243 10.908 78.0803 10.452C78.3363 9.996 78.6643 9.644 79.0643 9.396C79.4643 9.148 79.8883 9.024 80.3363 9.024C80.8323 9.024 81.2523 9.14 81.5963 9.372C81.9483 9.596 82.2123 9.912 82.3883 10.32C82.5643 10.728 82.6523 11.208 82.6523 11.76C82.6523 11.864 82.6483 11.964 82.6403 12.06C82.6403 12.156 82.6283 12.252 82.6043 12.348H78.4043V11.568H81.7643C81.7643 11.008 81.6403 10.58 81.3923 10.284C81.1523 9.98 80.8043 9.828 80.3483 9.828C80.0843 9.828 79.8243 9.904 79.5683 10.056C79.3123 10.2 79.1003 10.436 78.9323 10.764C78.7723 11.092 78.6923 11.528 78.6923 12.072C78.6923 12.568 78.7763 12.984 78.9443 13.32C79.1203 13.656 79.3563 13.912 79.6523 14.088C79.9483 14.256 80.2723 14.34 80.6243 14.34C80.9043 14.34 81.1643 14.3 81.4043 14.22C81.6523 14.14 81.8763 14.032 82.0763 13.896L82.4363 14.544C82.1803 14.72 81.8923 14.864 81.5723 14.976C81.2603 15.088 80.9043 15.144 80.5043 15.144ZM86.0854 15.144C85.3494 15.144 84.7614 14.88 84.3214 14.352C83.8894 13.816 83.6734 13.064 83.6734 12.096C83.6734 11.464 83.7894 10.92 84.0214 10.464C84.2614 10 84.5734 9.644 84.9574 9.396C85.3414 9.148 85.7574 9.024 86.2054 9.024C86.5494 9.024 86.8414 9.084 87.0814 9.204C87.3294 9.316 87.5814 9.48 87.8374 9.696L87.7894 8.7V6.456H88.7854V15H87.9694L87.8854 14.316H87.8494C87.6254 14.54 87.3614 14.736 87.0574 14.904C86.7534 15.064 86.4294 15.144 86.0854 15.144ZM86.3014 14.316C86.5734 14.316 86.8294 14.248 87.0694 14.112C87.3094 13.976 87.5494 13.776 87.7894 13.512V10.464C87.5494 10.24 87.3134 10.084 87.0814 9.996C86.8494 9.9 86.6134 9.852 86.3734 9.852C86.0614 9.852 85.7774 9.948 85.5214 10.14C85.2734 10.324 85.0734 10.584 84.9214 10.92C84.7694 11.248 84.6934 11.636 84.6934 12.084C84.6934 12.78 84.8334 13.328 85.1134 13.728C85.3934 14.12 85.7894 14.316 86.3014 14.316Z" fill="black" fill-opacity="0.88"/>
</svg>
